<svg xmlns="http://www.w3.org/2000/svg" viewBox="0 0 2048 1020" width="2048" height="1020">
  <path fill="#00007D" fill-rule="evenodd" d="M 160.00,580.50 L 3.50,580.00 L 3.50,528.00 L 22.50,528.00 L 21.50,527.00 L 21.50,388.00 L 3.50,387.00 L 4.00,335.50 L 156.00,335.50 L 168.00,338.50 L 173.00,337.50 L 175.00,339.50 L 178.00,338.50 L 178.00,342.50 L 183.00,339.50 L 185.00,342.50 L 189.00,342.50 L 191.00,345.50 L 195.00,347.50 L 200.50,353.00 L 201.50,355.00 L 200.50,356.00 L 202.50,356.00 L 201.50,358.00 L 203.50,358.00 L 206.50,363.00 L 206.50,367.00 L 208.50,368.00 L 207.50,370.00 L 209.50,373.00 L 208.50,374.00 L 209.00,379.50 L 209.50,377.00 L 210.50,377.00 L 210.50,383.00 L 209.50,384.00 L 210.00,417.50 L 209.50,415.00 L 208.50,415.00 L 208.50,421.00 L 209.50,422.00 L 206.50,426.00 L 205.50,431.00 L 201.50,434.00 L 202.50,435.00 L 201.50,437.00 L 196.00,443.50 L 195.00,442.50 L 188.00,447.50 L 184.00,448.50 L 183.00,450.50 L 180.00,449.50 L 176.00,452.50 L 174.00,451.50 L 169.50,453.00 L 173.00,454.50 L 175.00,453.50 L 176.00,455.50 L 179.00,455.50 L 179.00,457.50 L 181.00,456.50 L 186.00,458.50 L 199.00,466.50 L 200.50,468.00 L 199.50,469.00 L 201.50,471.00 L 201.50,473.00 L 204.50,476.00 L 203.50,478.00 L 205.00,477.50 L 207.50,479.00 L 206.50,482.00 L 208.50,486.00 L 208.50,493.00 L 210.50,492.00 L 210.50,498.00 L 209.50,499.00 L 210.50,536.00 L 209.50,536.00 L 209.00,533.50 L 207.50,538.00 L 209.50,542.00 L 206.50,547.00 L 207.50,550.00 L 205.50,551.00 L 206.50,553.00 L 204.50,554.00 L 203.50,558.00 L 200.50,560.00 L 202.50,561.00 L 198.50,563.00 L 200.50,564.00 L 199.00,565.50 L 198.00,564.50 L 196.50,566.00 L 197.50,567.00 L 195.00,569.50 L 194.00,568.50 L 190.00,571.50 L 188.00,570.50 L 188.50,572.00 L 186.00,574.50 L 185.00,573.50 L 182.00,574.50 L 181.00,576.50 L 178.00,575.50 L 173.00,578.50 L 171.00,577.50 L 170.00,578.50 L 160.00,578.50 L 160.00,580.50 Z M 428.00,580.50 L 425.00,579.50 L 424.00,580.50 L 237.50,580.00 L 238.50,579.00 L 237.50,578.00 L 237.50,535.00 L 236.50,534.00 L 237.50,530.00 L 256.50,529.00 L 256.50,388.00 L 257.50,387.00 L 239.00,387.50 L 237.50,386.00 L 238.00,335.50 L 347.50,336.00 L 346.50,337.00 L 346.50,387.00 L 328.50,388.00 L 329.50,389.00 L 329.50,527.00 L 328.50,529.00 L 361.50,530.00 L 360.50,529.00 L 361.50,528.00 L 362.00,486.50 L 428.00,486.50 L 428.00,580.50 Z M 594.00,580.50 L 512.00,580.50 L 511.00,578.50 L 505.00,578.50 L 504.00,579.50 L 502.00,577.50 L 498.00,578.50 L 496.00,576.50 L 489.00,575.50 L 482.00,571.50 L 480.00,572.50 L 469.00,560.50 L 466.50,560.00 L 467.50,559.00 L 465.50,558.00 L 466.50,557.00 L 463.50,549.00 L 461.50,548.00 L 462.50,545.00 L 459.50,538.00 L 459.50,532.00 L 460.50,531.00 L 460.50,388.00 L 441.50,387.00 L 441.00,335.50 L 532.50,336.00 L 531.50,337.00 L 532.50,338.00 L 533.00,528.50 L 573.00,528.50 L 574.50,527.00 L 572.50,527.00 L 572.50,337.00 L 574.00,337.50 L 574.00,335.50 L 664.50,336.00 L 663.50,337.00 L 663.50,387.00 L 651.00,387.50 L 650.00,388.50 L 644.50,387.00 L 645.50,388.00 L 645.50,535.00 L 646.50,536.00 L 644.50,539.00 L 645.50,544.00 L 643.50,545.00 L 643.50,549.00 L 641.50,554.00 L 639.50,554.00 L 640.50,556.00 L 638.50,559.00 L 639.50,560.00 L 638.50,562.00 L 636.00,560.50 L 636.50,562.00 L 634.00,564.50 L 632.50,564.00 L 633.50,565.00 L 629.50,568.00 L 629.00,570.50 L 628.00,569.50 L 626.00,571.50 L 624.00,571.50 L 624.00,573.50 L 622.00,572.50 L 608.00,578.50 L 606.00,577.50 L 605.00,578.50 L 604.00,577.50 L 602.00,579.50 L 601.00,578.50 L 595.00,578.50 L 594.00,580.50 Z M 877.00,580.50 L 873.00,579.50 L 872.00,580.50 L 681.50,580.00 L 682.50,579.00 L 682.50,530.00 L 700.50,529.00 L 700.50,388.00 L 701.50,387.00 L 682.50,386.00 L 682.00,335.50 L 874.50,336.00 L 874.00,414.50 L 814.00,414.50 L 813.00,386.50 L 774.00,386.50 L 772.50,388.00 L 773.00,433.50 L 776.00,432.50 L 777.00,433.50 L 781.00,432.50 L 785.00,433.50 L 823.00,432.50 L 824.00,433.50 L 825.00,432.50 L 826.50,434.00 L 826.00,435.50 L 828.00,433.50 L 829.50,434.00 L 829.50,477.00 L 828.00,478.50 L 772.50,478.00 L 772.50,529.00 L 813.00,529.50 L 814.00,497.50 L 876.00,497.50 L 877.00,580.50 Z M 137.50,433.00 L 137.50,388.00 L 95.00,387.50 L 94.50,432.00 L 93.50,433.00 L 137.50,433.00 Z M 1639.00,576.50 L 905.50,576.00 L 922.00,558.50 L 923.50,559.00 L 922.50,556.00 L 930.00,550.50 L 932.00,547.50 L 933.50,548.00 L 932.50,547.00 L 933.00,544.50 L 935.00,544.50 L 937.00,541.50 L 938.00,542.50 L 937.50,541.00 L 946.00,532.50 L 948.50,534.00 L 946.50,532.00 L 947.50,531.00 L 946.50,530.00 L 953.50,524.00 L 954.00,521.50 L 956.50,523.00 L 954.50,521.00 L 960.00,516.50 L 961.00,517.50 L 960.50,516.00 L 965.00,511.50 L 966.50,512.00 L 965.50,511.00 L 968.50,508.00 L 967.50,507.00 L 969.00,505.50 L 970.00,506.50 L 976.00,499.50 L 978.50,501.00 L 976.50,499.00 L 978.50,497.00 L 978.50,495.00 L 981.00,492.50 L 982.00,493.50 L 983.50,492.00 L 988.50,485.00 L 990.50,484.00 L 989.50,483.00 L 993.50,481.00 L 1001.50,472.00 L 1000.50,471.00 L 1003.00,468.50 L 1005.50,470.00 L 1004.50,468.00 L 1006.50,468.00 L 1005.50,467.00 L 1008.50,464.00 L 1007.50,463.00 L 1010.50,462.00 L 1024.50,446.00 L 1024.50,444.00 L 1027.50,445.00 L 1026.50,443.00 L 1032.50,437.00 L 1033.50,435.00 L 1032.50,433.00 L 1034.50,432.00 L 1033.50,431.00 L 1038.50,427.00 L 1036.50,426.00 L 1042.00,422.50 L 1041.50,421.00 L 1043.00,419.50 L 1044.00,420.50 L 1046.00,417.50 L 1047.00,419.50 L 1052.00,415.50 L 1053.00,416.50 L 1061.00,415.50 L 1063.00,418.50 L 1064.00,417.50 L 1066.00,418.50 L 1070.00,417.50 L 1071.00,419.50 L 1076.00,420.50 L 1076.00,422.50 L 1078.00,422.50 L 1085.00,427.50 L 1085.00,429.50 L 1086.00,428.50 L 1089.00,429.50 L 1090.00,431.50 L 1099.00,437.50 L 1102.50,441.00 L 1101.50,443.00 L 1103.00,444.50 L 1102.50,443.00 L 1104.00,442.50 L 1118.50,457.00 L 1138.50,480.00 L 1142.50,483.00 L 1149.50,491.00 L 1150.50,493.00 L 1149.50,494.00 L 1151.00,493.50 L 1153.50,496.00 L 1153.00,497.50 L 1154.00,496.50 L 1168.00,511.50 L 1179.00,520.50 L 1185.00,524.50 L 1199.00,531.50 L 1201.00,531.50 L 1201.00,533.50 L 1203.00,532.50 L 1211.00,535.50 L 1218.00,535.50 L 1219.00,536.50 L 1235.00,536.50 L 1251.00,533.50 L 1270.00,524.50 L 1283.00,515.50 L 1310.00,488.50 L 1311.00,489.50 L 1310.50,488.00 L 1318.00,480.50 L 1321.00,479.50 L 1336.00,479.50 L 1349.00,482.50 L 1360.00,487.50 L 1365.00,488.50 L 1371.00,492.50 L 1375.00,493.50 L 1375.00,495.50 L 1376.00,494.50 L 1384.00,498.50 L 1384.00,500.50 L 1386.00,499.50 L 1397.00,506.50 L 1399.00,506.50 L 1409.00,512.50 L 1408.50,514.00 L 1410.00,515.50 L 1409.50,514.00 L 1411.00,513.50 L 1434.00,526.50 L 1442.00,528.50 L 1448.00,531.50 L 1451.00,531.50 L 1454.00,533.50 L 1464.00,535.50 L 1467.00,537.50 L 1471.00,537.50 L 1483.00,542.50 L 1501.00,546.50 L 1515.00,551.50 L 1526.00,553.50 L 1530.00,555.50 L 1534.00,555.50 L 1558.00,562.50 L 1562.00,562.50 L 1566.00,564.50 L 1585.00,567.50 L 1590.00,569.50 L 1595.00,569.50 L 1600.00,571.50 L 1601.00,570.50 L 1613.00,573.50 L 1622.00,573.50 L 1631.00,575.50 L 1639.00,575.50 L 1639.00,576.50 Z M 137.50,528.00 L 137.50,479.00 L 96.00,478.50 L 95.00,476.50 L 94.50,528.00 L 137.50,528.00 Z M 1863.00,577.50 L 1644.50,577.00 L 1863.00,576.50 L 1863.00,577.50 Z M 299.00,846.50 L 212.50,846.00 L 212.00,719.50 L 208.50,724.00 L 209.50,725.00 L 205.00,729.50 L 203.50,729.00 L 204.50,733.00 L 200.00,737.50 L 198.50,737.00 L 200.50,740.00 L 197.50,742.00 L 198.50,743.00 L 193.50,748.00 L 192.50,750.00 L 193.50,751.00 L 188.50,756.00 L 187.50,758.00 L 188.50,759.00 L 186.50,760.00 L 187.50,761.00 L 183.50,764.00 L 184.50,766.00 L 180.50,766.00 L 181.50,769.00 L 178.00,773.50 L 176.50,773.00 L 177.50,774.00 L 175.50,778.00 L 176.50,779.00 L 172.50,782.00 L 170.50,786.00 L 171.50,787.00 L 166.50,792.00 L 165.50,794.00 L 166.50,795.00 L 163.50,797.00 L 162.50,799.00 L 163.50,800.00 L 159.50,804.00 L 160.50,805.00 L 157.50,807.00 L 154.50,811.00 L 155.50,813.00 L 150.00,818.50 L 147.50,817.00 L 148.50,816.00 L 145.50,811.00 L 142.50,809.00 L 143.50,808.00 L 142.50,806.00 L 139.50,801.00 L 136.50,799.00 L 137.50,798.00 L 133.50,794.00 L 134.50,793.00 L 131.50,791.00 L 132.50,790.00 L 128.50,786.00 L 129.50,785.00 L 127.50,784.00 L 128.50,783.00 L 127.50,781.00 L 122.50,776.00 L 123.50,775.00 L 121.50,773.00 L 121.50,771.00 L 116.50,766.00 L 117.50,761.00 L 116.00,762.50 L 114.50,761.00 L 108.50,750.00 L 105.50,748.00 L 106.50,747.00 L 105.50,745.00 L 100.50,740.00 L 101.50,739.00 L 100.50,737.00 L 95.50,732.00 L 96.50,730.00 L 94.50,730.00 L 94.50,727.00 L 89.50,722.00 L 90.50,721.00 L 89.00,719.50 L 88.50,846.00 L 2.00,846.50 L 1.50,798.00 L 2.50,797.00 L 1.50,796.00 L 18.00,795.50 L 19.00,797.50 L 20.50,796.00 L 19.50,795.00 L 19.50,667.00 L 19.50,657.00 L 20.50,656.00 L 1.50,656.00 L 1.50,605.00 L 89.00,604.50 L 88.50,607.00 L 90.50,609.00 L 90.50,611.00 L 94.50,614.00 L 93.50,615.00 L 96.50,617.00 L 95.50,619.00 L 101.50,628.00 L 102.50,630.00 L 101.50,631.00 L 103.00,630.50 L 104.50,634.00 L 107.50,636.00 L 106.50,637.00 L 108.50,638.00 L 107.50,639.00 L 108.50,641.00 L 111.50,643.00 L 110.50,644.00 L 113.50,650.00 L 118.50,655.00 L 116.50,656.00 L 119.50,659.00 L 117.50,661.00 L 122.00,661.50 L 121.50,663.00 L 124.50,665.00 L 123.50,666.00 L 125.50,667.00 L 124.50,668.00 L 127.50,670.00 L 126.50,672.00 L 135.50,687.00 L 138.50,689.00 L 137.50,691.00 L 142.50,696.00 L 141.50,697.00 L 143.50,701.00 L 146.50,703.00 L 145.50,704.00 L 147.50,707.00 L 146.50,708.00 L 149.50,708.00 L 148.50,709.00 L 150.00,711.50 L 152.50,709.00 L 151.50,707.00 L 154.50,706.00 L 153.50,704.00 L 156.50,702.00 L 159.50,696.00 L 161.00,694.50 L 162.50,695.00 L 161.50,690.00 L 163.00,690.50 L 165.50,687.00 L 164.50,685.00 L 166.00,683.50 L 169.50,685.00 L 167.50,683.00 L 172.50,675.00 L 171.50,674.00 L 176.50,669.00 L 175.50,667.00 L 180.50,662.00 L 181.50,660.00 L 180.50,659.00 L 185.00,654.50 L 186.50,655.00 L 185.50,654.00 L 186.50,653.00 L 184.50,652.00 L 187.50,650.00 L 194.50,639.00 L 193.50,637.00 L 196.50,635.00 L 201.50,626.00 L 203.50,625.00 L 201.50,623.00 L 203.00,623.50 L 205.50,620.00 L 205.50,617.00 L 207.50,617.00 L 208.50,615.00 L 207.50,613.00 L 209.50,613.00 L 208.50,612.00 L 211.50,610.00 L 212.00,606.50 L 215.00,604.50 L 299.00,604.50 L 299.50,656.00 L 279.50,656.00 L 279.50,796.00 L 281.00,797.50 L 282.00,795.50 L 299.50,796.00 L 298.50,797.00 L 299.50,798.00 L 299.00,846.50 Z M 465.00,847.50 L 462.00,846.50 L 379.00,846.50 L 376.00,847.50 L 375.00,845.50 L 369.00,846.50 L 369.00,844.50 L 366.00,845.50 L 365.00,843.50 L 362.00,842.50 L 359.00,843.50 L 358.00,841.50 L 357.00,842.50 L 356.00,840.50 L 348.00,836.50 L 344.00,832.50 L 343.00,833.50 L 337.50,828.00 L 338.50,827.00 L 335.50,825.00 L 336.50,823.00 L 333.50,821.00 L 334.50,819.00 L 332.50,816.00 L 330.50,807.00 L 328.50,806.00 L 329.50,800.00 L 327.50,799.00 L 328.50,798.00 L 327.50,797.00 L 328.50,796.00 L 328.50,655.00 L 327.50,652.00 L 331.50,649.00 L 329.50,649.00 L 328.50,645.00 L 330.50,644.00 L 331.50,638.00 L 333.50,638.00 L 332.50,634.00 L 334.00,632.50 L 335.50,633.00 L 333.50,630.00 L 336.50,628.00 L 338.50,624.00 L 337.50,623.00 L 340.00,622.50 L 345.50,617.00 L 345.00,615.50 L 351.00,613.50 L 353.00,610.50 L 355.00,612.50 L 355.00,610.50 L 359.00,608.50 L 362.00,608.50 L 363.00,606.50 L 364.00,607.50 L 366.00,605.50 L 369.00,606.50 L 369.00,604.50 L 373.00,605.50 L 375.00,604.50 L 466.00,604.50 L 467.00,605.50 L 472.00,604.50 L 472.00,606.50 L 477.00,607.50 L 479.00,606.50 L 479.00,608.50 L 482.00,607.50 L 482.50,610.00 L 484.00,608.50 L 485.00,610.50 L 488.50,612.00 L 488.00,613.50 L 490.00,612.50 L 490.00,614.50 L 491.00,613.50 L 495.00,616.50 L 496.00,615.50 L 498.50,620.00 L 506.50,627.00 L 505.50,629.00 L 508.50,634.00 L 507.50,636.00 L 509.00,635.50 L 509.50,638.00 L 511.50,639.00 L 510.50,644.00 L 512.50,650.00 L 512.50,797.00 L 513.50,798.00 L 512.50,799.00 L 513.50,800.00 L 509.50,807.00 L 510.50,808.00 L 509.50,811.00 L 511.00,810.50 L 511.50,812.00 L 509.50,813.00 L 507.50,818.00 L 508.50,820.00 L 505.50,822.00 L 506.50,824.00 L 498.00,832.50 L 493.00,835.50 L 490.00,839.50 L 489.00,838.50 L 488.00,840.50 L 487.00,839.50 L 484.00,842.50 L 483.00,841.50 L 482.00,843.50 L 480.00,842.50 L 478.00,844.50 L 473.00,843.50 L 471.00,846.50 L 466.00,845.50 L 465.00,847.50 Z M 697.00,847.50 L 694.00,846.50 L 610.00,846.50 L 607.00,847.50 L 607.00,845.50 L 598.00,846.50 L 598.00,844.50 L 593.00,845.50 L 592.00,843.50 L 591.00,844.50 L 587.00,841.50 L 585.00,842.50 L 584.00,840.50 L 577.00,837.50 L 565.50,826.00 L 562.50,819.00 L 562.50,816.00 L 560.50,816.00 L 561.50,814.00 L 560.50,813.00 L 560.50,807.00 L 561.50,806.00 L 560.00,804.50 L 558.50,805.00 L 558.50,800.00 L 559.50,799.00 L 559.50,655.00 L 540.50,656.00 L 541.00,604.50 L 631.50,605.00 L 632.00,796.50 L 672.50,796.00 L 671.50,795.00 L 671.50,605.00 L 762.50,605.00 L 762.50,656.00 L 744.50,655.00 L 744.50,804.00 L 743.50,805.00 L 744.50,812.00 L 742.50,813.00 L 740.50,822.00 L 738.50,824.00 L 738.50,827.00 L 727.00,837.50 L 720.00,840.50 L 719.00,842.50 L 718.00,841.50 L 717.00,843.50 L 714.00,842.50 L 711.00,845.50 L 707.00,843.50 L 705.00,846.50 L 697.00,845.50 L 697.00,847.50 Z M 1017.00,846.50 L 934.00,846.50 L 931.00,844.50 L 931.50,843.00 L 926.50,835.00 L 927.50,833.00 L 924.50,833.00 L 925.50,832.00 L 922.50,826.00 L 919.50,824.00 L 920.50,822.00 L 916.50,819.00 L 917.50,817.00 L 915.50,814.00 L 913.50,814.00 L 914.50,812.00 L 910.50,808.00 L 911.50,806.00 L 908.50,804.00 L 909.00,802.50 L 907.50,803.00 L 908.50,801.00 L 905.50,799.00 L 906.50,797.00 L 903.50,795.00 L 904.50,794.00 L 902.50,793.00 L 903.50,792.00 L 899.50,784.00 L 894.50,779.00 L 895.50,777.00 L 892.50,775.00 L 893.50,774.00 L 888.50,765.00 L 889.50,764.00 L 888.00,764.50 L 886.50,761.00 L 884.50,760.00 L 885.50,759.00 L 884.50,757.00 L 881.50,755.00 L 882.50,753.00 L 879.50,748.00 L 876.50,746.00 L 877.50,745.00 L 875.50,744.00 L 876.50,743.00 L 875.50,741.00 L 873.50,741.00 L 874.50,739.00 L 870.50,735.00 L 871.50,733.00 L 868.00,728.50 L 867.50,839.00 L 868.50,840.00 L 867.50,843.00 L 868.50,845.00 L 867.00,846.50 L 781.50,846.00 L 781.50,797.00 L 780.50,796.00 L 798.00,795.50 L 798.00,797.50 L 800.50,796.00 L 800.50,656.00 L 799.50,656.00 L 799.00,795.50 L 798.50,657.00 L 781.50,656.00 L 782.00,604.50 L 867.00,604.50 L 870.50,608.00 L 869.50,610.00 L 872.50,614.00 L 871.50,616.00 L 873.00,615.50 L 876.50,619.00 L 875.50,620.00 L 878.50,623.00 L 877.50,624.00 L 878.50,626.00 L 881.50,628.00 L 880.50,629.00 L 882.50,632.00 L 881.50,633.00 L 883.50,634.00 L 889.50,646.00 L 892.50,648.00 L 891.50,650.00 L 894.50,655.00 L 897.50,657.00 L 896.50,658.00 L 899.50,664.00 L 902.50,666.00 L 901.50,667.00 L 903.50,668.00 L 901.50,671.00 L 903.00,670.50 L 905.50,675.00 L 908.50,677.00 L 907.50,679.00 L 909.50,681.00 L 909.50,683.00 L 911.50,684.00 L 913.50,690.00 L 917.50,693.00 L 915.50,694.00 L 919.50,697.00 L 918.50,699.00 L 920.50,701.00 L 920.50,703.00 L 922.50,704.00 L 922.50,706.00 L 925.50,708.00 L 924.50,709.00 L 925.50,711.00 L 927.50,712.00 L 926.50,715.00 L 930.50,717.00 L 928.50,720.00 L 930.00,719.50 L 932.00,722.50 L 933.50,722.00 L 933.50,605.00 L 1018.50,605.00 L 1018.50,656.00 L 999.50,656.00 L 999.50,796.00 L 1001.00,797.50 L 1003.50,797.00 L 1002.00,795.50 L 1006.00,795.50 L 1006.00,797.50 L 1015.50,797.00 L 1008.00,796.50 L 1008.00,795.50 L 1018.50,796.00 L 1017.50,797.00 L 1018.50,798.00 L 1018.50,845.00 L 1017.00,846.50 Z M 1206.00,846.50 L 1097.50,846.00 L 1097.50,796.00 L 1116.50,795.00 L 1116.50,655.00 L 1088.50,656.00 L 1088.50,691.00 L 1087.00,693.50 L 1039.00,693.50 L 1037.50,692.00 L 1038.00,604.50 L 1265.00,604.50 L 1266.50,606.00 L 1266.00,693.50 L 1264.00,692.50 L 1263.00,693.50 L 1217.00,693.50 L 1215.50,692.00 L 1215.50,656.00 L 1188.50,655.00 L 1188.50,795.00 L 1206.50,796.00 L 1206.00,846.50 Z M 1502.00,846.50 L 1417.00,846.50 L 1414.50,841.00 L 1415.50,837.00 L 1413.50,836.00 L 1414.50,835.00 L 1414.50,830.00 L 1412.50,829.00 L 1413.50,827.00 L 1413.50,825.00 L 1411.50,823.00 L 1412.50,816.00 L 1410.50,817.00 L 1411.50,814.00 L 1411.50,812.00 L 1409.50,810.00 L 1410.50,803.00 L 1409.50,803.00 L 1409.00,805.50 L 1409.50,798.00 L 1408.50,797.00 L 1408.50,790.00 L 1407.00,787.50 L 1365.50,788.00 L 1366.50,793.00 L 1364.50,792.00 L 1364.50,797.00 L 1365.50,798.00 L 1363.50,801.00 L 1364.50,804.00 L 1361.50,807.00 L 1363.50,813.00 L 1361.50,815.00 L 1362.50,819.00 L 1360.50,821.00 L 1361.50,828.00 L 1359.50,828.00 L 1359.50,833.00 L 1360.50,834.00 L 1358.50,836.00 L 1357.00,846.50 L 1270.50,846.00 L 1270.50,798.00 L 1271.50,797.00 L 1270.50,796.00 L 1288.00,795.50 L 1289.00,797.50 L 1290.50,796.00 L 1290.50,790.00 L 1291.50,789.00 L 1290.50,786.00 L 1292.50,785.00 L 1291.50,781.00 L 1293.50,779.00 L 1295.50,771.00 L 1294.50,767.00 L 1297.50,765.00 L 1296.50,762.00 L 1300.50,745.00 L 1299.50,741.00 L 1301.50,741.00 L 1301.50,736.00 L 1303.50,731.00 L 1302.50,726.00 L 1304.50,726.00 L 1303.50,723.00 L 1305.50,721.00 L 1306.50,712.00 L 1309.50,707.00 L 1308.50,706.00 L 1309.50,701.00 L 1308.50,697.00 L 1310.50,698.00 L 1309.50,693.00 L 1311.50,690.00 L 1310.50,689.00 L 1312.50,687.00 L 1311.50,683.00 L 1313.00,681.50 L 1314.50,682.00 L 1312.50,679.00 L 1314.50,677.00 L 1314.50,674.00 L 1316.50,674.00 L 1315.50,673.00 L 1315.50,668.00 L 1316.50,667.00 L 1315.50,663.00 L 1317.50,663.00 L 1316.50,659.00 L 1318.50,657.00 L 1317.50,652.00 L 1319.50,653.00 L 1318.50,648.00 L 1320.50,647.00 L 1319.50,643.00 L 1321.50,644.00 L 1320.50,639.00 L 1322.50,637.00 L 1323.50,633.00 L 1322.50,629.00 L 1325.50,628.00 L 1323.50,625.00 L 1325.50,623.00 L 1329.00,604.50 L 1440.00,604.50 L 1442.00,606.50 L 1441.50,605.00 L 1443.50,605.00 L 1445.50,608.00 L 1443.50,612.00 L 1445.00,613.50 L 1446.50,613.00 L 1445.50,615.00 L 1446.50,622.00 L 1448.50,622.00 L 1447.50,626.00 L 1449.50,628.00 L 1447.50,631.00 L 1450.50,637.00 L 1449.50,642.00 L 1451.50,643.00 L 1451.50,646.00 L 1453.50,647.00 L 1452.50,650.00 L 1454.50,651.00 L 1452.50,654.00 L 1455.50,657.00 L 1454.50,658.00 L 1454.50,660.00 L 1456.50,661.00 L 1455.50,666.00 L 1457.50,665.00 L 1456.50,668.00 L 1457.50,669.00 L 1457.50,675.00 L 1459.50,674.00 L 1458.50,677.00 L 1459.50,684.00 L 1458.50,685.00 L 1460.50,686.00 L 1460.50,688.00 L 1462.50,690.00 L 1461.50,691.00 L 1461.50,694.00 L 1463.50,694.00 L 1462.50,699.00 L 1464.50,700.00 L 1463.50,702.00 L 1465.50,704.00 L 1463.50,708.00 L 1466.50,709.00 L 1465.50,710.00 L 1466.50,718.00 L 1468.50,717.00 L 1467.50,721.00 L 1469.50,723.00 L 1468.50,728.00 L 1469.50,732.00 L 1471.50,733.00 L 1470.50,738.00 L 1471.50,741.00 L 1473.50,742.00 L 1472.50,747.00 L 1474.50,755.00 L 1476.50,756.00 L 1475.50,761.00 L 1477.50,761.00 L 1476.50,763.00 L 1478.50,766.00 L 1477.50,770.00 L 1479.50,770.00 L 1478.50,773.00 L 1480.50,776.00 L 1479.50,780.00 L 1481.50,779.00 L 1480.50,784.00 L 1482.50,794.00 L 1485.00,797.50 L 1486.00,795.50 L 1503.50,796.00 L 1501.50,797.00 L 1502.50,798.00 L 1502.00,846.50 Z M 1627.00,846.50 L 1521.50,846.00 L 1521.50,796.00 L 1539.50,795.00 L 1539.50,657.00 L 1520.50,656.00 L 1521.50,655.00 L 1522.00,604.50 L 1628.50,605.00 L 1628.50,656.00 L 1611.50,656.00 L 1612.50,657.00 L 1611.50,659.00 L 1612.50,660.00 L 1611.50,661.00 L 1612.50,662.00 L 1612.50,791.00 L 1611.50,792.00 L 1612.50,793.00 L 1610.50,796.00 L 1627.00,795.50 L 1628.50,797.00 L 1628.50,845.00 L 1627.00,846.50 Z M 1892.00,846.50 L 1808.00,846.50 L 1805.00,844.50 L 1805.50,843.00 L 1803.50,843.00 L 1804.50,841.00 L 1802.50,837.00 L 1798.50,833.00 L 1799.50,832.00 L 1798.50,830.00 L 1795.50,828.00 L 1797.50,825.00 L 1794.00,824.50 L 1794.00,822.50 L 1792.50,823.00 L 1793.50,821.00 L 1789.50,814.00 L 1787.50,813.00 L 1788.50,809.00 L 1787.00,809.50 L 1784.50,808.00 L 1785.50,806.00 L 1782.50,804.00 L 1783.50,803.00 L 1780.50,797.00 L 1776.50,793.00 L 1777.50,792.00 L 1776.50,790.00 L 1773.50,788.00 L 1774.50,786.00 L 1771.50,784.00 L 1772.50,780.00 L 1771.00,780.50 L 1767.50,777.00 L 1768.50,776.00 L 1765.50,773.00 L 1766.50,772.00 L 1765.50,770.00 L 1762.50,768.00 L 1763.50,766.00 L 1760.50,764.00 L 1761.50,763.00 L 1760.50,761.00 L 1757.50,759.00 L 1758.50,758.00 L 1756.50,757.00 L 1757.50,756.00 L 1754.50,750.00 L 1751.50,748.00 L 1752.50,746.00 L 1748.50,743.00 L 1750.50,741.00 L 1747.00,739.50 L 1747.50,738.00 L 1745.50,737.00 L 1746.50,736.00 L 1743.50,730.00 L 1745.00,728.50 L 1741.50,729.00 L 1742.50,730.00 L 1741.50,731.00 L 1741.50,846.00 L 1655.50,846.00 L 1654.50,844.00 L 1654.50,799.00 L 1655.50,798.00 L 1654.50,796.00 L 1672.50,796.00 L 1658.00,796.50 L 1658.00,797.50 L 1672.00,797.50 L 1674.50,796.00 L 1674.50,656.00 L 1673.50,656.00 L 1673.00,795.50 L 1672.50,657.00 L 1654.50,656.00 L 1655.50,655.00 L 1654.50,654.00 L 1655.00,604.50 L 1741.00,604.50 L 1742.00,606.50 L 1743.00,605.50 L 1743.50,610.00 L 1746.50,612.00 L 1745.50,613.00 L 1746.50,616.00 L 1751.50,621.00 L 1750.50,623.00 L 1752.50,625.00 L 1751.50,627.00 L 1753.50,627.00 L 1752.50,629.00 L 1754.00,628.50 L 1757.50,632.00 L 1756.50,633.00 L 1758.00,635.50 L 1759.50,635.00 L 1758.50,637.00 L 1760.50,640.00 L 1759.50,641.00 L 1762.50,641.00 L 1761.50,643.00 L 1763.50,645.00 L 1765.50,651.00 L 1768.50,652.00 L 1767.50,654.00 L 1770.50,656.00 L 1769.50,657.00 L 1770.50,659.00 L 1773.50,661.00 L 1772.50,665.00 L 1775.50,665.00 L 1774.50,666.00 L 1776.50,671.00 L 1779.50,674.00 L 1779.50,676.00 L 1783.50,683.00 L 1786.50,685.00 L 1785.50,686.00 L 1787.50,689.00 L 1786.50,690.00 L 1789.50,690.00 L 1788.50,692.00 L 1792.50,696.00 L 1791.50,697.00 L 1794.50,703.00 L 1797.50,705.00 L 1796.50,706.00 L 1797.50,708.00 L 1800.50,710.00 L 1799.50,712.00 L 1803.50,716.00 L 1802.50,717.00 L 1806.00,722.50 L 1807.50,722.00 L 1807.50,605.00 L 1892.50,605.00 L 1892.50,656.00 L 1873.50,656.00 L 1874.50,657.00 L 1874.50,795.00 L 1873.50,797.00 L 1876.50,797.00 L 1875.00,795.50 L 1892.50,796.00 L 1891.50,797.00 L 1892.50,798.00 L 1892.00,846.50 Z M 1403.50,746.00 L 1403.00,744.50 L 1401.50,745.00 L 1402.50,741.00 L 1400.50,739.00 L 1403.50,734.00 L 1402.00,734.50 L 1401.00,732.50 L 1399.50,734.00 L 1400.50,730.00 L 1400.50,728.00 L 1398.50,727.00 L 1399.50,726.00 L 1399.50,721.00 L 1398.50,716.00 L 1396.50,715.00 L 1397.50,714.00 L 1397.50,708.00 L 1395.50,704.00 L 1395.50,699.00 L 1393.50,698.00 L 1394.50,692.00 L 1392.50,691.00 L 1393.50,689.00 L 1391.50,686.00 L 1392.50,685.00 L 1392.50,680.00 L 1390.50,681.00 L 1391.50,676.00 L 1389.50,674.00 L 1391.50,667.00 L 1388.50,669.00 L 1389.50,664.00 L 1387.00,651.50 L 1385.50,654.00 L 1387.50,656.00 L 1386.50,659.00 L 1385.00,657.50 L 1383.50,658.00 L 1385.50,664.00 L 1383.50,665.00 L 1384.50,669.00 L 1382.50,670.00 L 1381.50,673.00 L 1383.50,676.00 L 1381.50,676.00 L 1382.50,681.00 L 1380.50,683.00 L 1381.50,688.00 L 1379.50,688.00 L 1380.50,693.00 L 1378.50,695.00 L 1377.50,699.00 L 1377.50,706.00 L 1376.50,707.00 L 1377.50,713.00 L 1375.50,712.00 L 1375.50,717.00 L 1376.50,718.00 L 1374.50,720.00 L 1375.50,725.00 L 1374.00,723.50 L 1372.50,724.00 L 1374.50,730.00 L 1372.50,732.00 L 1371.50,736.00 L 1372.50,743.00 L 1370.50,743.00 L 1370.50,746.00 L 1403.50,746.00 Z M 440.50,796.00 L 440.50,655.00 L 400.00,654.50 L 399.50,796.00 L 440.50,796.00 Z M 124.00,883.50 L 111.50,883.00 L 124.00,882.50 L 124.00,883.50 Z M 288.00,883.50 L 276.50,883.00 L 288.00,882.50 L 288.00,883.50 Z M 618.00,883.50 L 606.50,883.00 L 618.00,882.50 L 618.00,883.50 Z M 1250.00,883.50 L 1238.50,883.00 L 1250.00,882.50 L 1250.00,883.50 Z M 1625.00,883.50 L 1613.50,883.00 L 1625.00,882.50 L 1625.00,883.50 Z M 1823.00,957.50 L 1821.50,957.00 L 1822.50,956.00 L 1823.00,922.50 L 1823.00,957.50 Z M 1250.00,974.50 L 1235.50,974.00 L 1250.00,973.50 L 1250.00,974.50 Z M 424.00,990.50 L 396.50,990.00 L 424.00,989.50 L 424.00,990.50 Z M 511.00,990.50 L 484.50,990.00 L 511.00,989.50 L 511.00,990.50 Z M 775.00,990.50 L 750.50,990.00 L 775.00,989.50 L 775.00,990.50 Z M 887.00,990.50 L 858.50,990.00 L 887.00,989.50 L 887.00,990.50 Z M 967.00,990.50 L 946.50,990.00 L 967.00,989.50 L 967.00,990.50 Z M 1402.00,990.50 L 1375.50,990.00 L 1402.00,989.50 L 1402.00,990.50 Z M 1515.00,990.50 L 1485.50,990.00 L 1515.00,989.50 L 1515.00,990.50 Z M 1761.00,990.50 L 1735.50,990.00 L 1761.00,989.50 L 1761.00,990.50 Z M 1851.00,990.50 L 1822.50,990.00 L 1851.00,989.50 L 1851.00,990.50 Z"/>
  <path fill="#4A72A7" fill-rule="evenodd" d="M 849.00,320.50 L 771.50,320.00 L 773.00,317.50 L 774.00,319.50 L 849.00,320.50 Z M 347.00,388.50 L 329.50,388.00 L 346.50,387.00 L 347.00,336.50 L 347.00,388.50 Z M 1643.00,577.50 L 909.50,577.00 L 1642.00,575.50 L 1643.00,577.50 Z M 781.00,655.50 L 780.50,604.00 L 782.00,603.50 L 781.00,655.50 Z M 933.00,721.50 L 931.50,721.00 L 932.50,604.00 L 935.00,603.50 L 933.50,605.00 L 933.00,721.50 Z M 931.00,931.50 L 889.00,931.50 L 888.50,906.00 L 890.00,929.50 L 931.00,931.50 Z"/>
  <path fill="#0F72B4" fill-rule="evenodd" d="M 1908.00,1007.50 C 1900.33,999.17 1899.92,929.58 1906.50,897.00 C 1913.08,864.42 1937.67,836.00 1947.50,812.00 C 1957.33,788.00 1960.67,772.67 1965.50,753.00 C 1970.33,733.33 1974.17,719.83 1976.50,694.00 C 1978.83,668.17 1981.33,629.83 1979.50,598.00 C 1977.67,566.17 1973.83,535.83 1965.50,503.00 C 1957.17,470.17 1939.17,425.17 1929.50,401.00 C 1919.83,376.83 1917.17,374.00 1907.50,358.00 C 1897.83,342.00 1884.83,322.50 1871.50,305.00 C 1858.17,287.50 1840.58,267.25 1827.50,253.00 C 1814.42,238.75 1812.58,235.42 1793.00,219.50 C 1773.42,203.58 1733.50,173.17 1710.00,157.50 C 1686.50,141.83 1670.17,134.50 1652.00,125.50 C 1633.83,116.50 1627.50,112.33 1601.00,103.50 C 1574.50,94.67 1521.00,79.17 1493.00,72.50 C 1465.00,65.83 1452.83,65.50 1433.00,63.50 C 1413.17,61.50 1396.33,60.50 1374.00,60.50 C 1351.67,60.50 1321.00,61.67 1299.00,63.50 C 1277.00,65.33 1269.50,65.17 1242.00,71.50 C 1214.50,77.83 1160.17,93.00 1134.00,101.50 C 1107.83,110.00 1103.83,113.17 1085.00,122.50 C 1066.17,131.83 1042.17,144.33 1021.00,157.50 C 999.83,170.67 972.50,190.50 958.00,201.50 C 943.50,212.50 945.92,211.75 934.00,223.50 C 922.08,235.25 900.67,256.00 886.50,272.00 C 872.33,288.00 867.83,312.00 849.00,319.50 C 830.17,327.00 780.08,326.08 773.50,317.00 C 766.92,307.92 796.67,281.67 809.50,265.00 C 822.33,248.33 835.58,232.75 850.50,217.00 C 865.42,201.25 882.25,185.08 899.00,170.50 C 915.75,155.92 934.33,141.50 951.00,129.50 C 967.67,117.50 980.50,109.17 999.00,98.50 C 1017.50,87.83 1042.50,74.67 1062.00,65.50 C 1081.50,56.33 1093.50,51.17 1116.00,43.50 C 1138.50,35.83 1163.67,26.50 1197.00,19.50 C 1230.33,12.50 1279.67,4.50 1316.00,1.50 C 1352.33,-1.50 1388.17,0.33 1415.00,1.50 C 1441.83,2.67 1457.17,5.50 1477.00,8.50 C 1496.83,11.50 1511.83,14.00 1534.00,19.50 C 1556.17,25.00 1584.33,32.33 1610.00,41.50 C 1635.67,50.67 1666.83,64.50 1688.00,74.50 C 1709.17,84.50 1713.50,86.00 1737.00,101.50 C 1760.50,117.00 1804.92,148.08 1829.00,167.50 C 1853.08,186.92 1865.42,200.92 1881.50,218.00 C 1897.58,235.08 1911.83,251.83 1925.50,270.00 C 1939.17,288.17 1952.33,308.33 1963.50,327.00 C 1974.67,345.67 1984.00,363.67 1992.50,382.00 C 2001.00,400.33 2007.50,416.00 2014.50,437.00 C 2021.50,458.00 2029.33,483.67 2034.50,508.00 C 2039.67,532.33 2043.50,560.00 2045.50,583.00 C 2047.50,606.00 2047.17,625.17 2046.50,646.00 C 2045.83,666.83 2044.67,686.17 2041.50,708.00 C 2038.33,729.83 2033.17,755.17 2027.50,777.00 C 2021.83,798.83 2015.83,817.83 2007.50,839.00 C 1999.17,860.17 1986.67,886.00 1977.50,904.00 C 1968.33,922.00 1964.08,929.75 1952.50,947.00 C 1940.92,964.25 1915.67,1015.83 1908.00,1007.50 Z M 1232.00,536.50 C 1224.50,537.00 1217.17,536.83 1209.00,534.50 C 1200.83,532.17 1191.08,527.75 1183.00,522.50 C 1174.92,517.25 1171.92,514.58 1160.50,503.00 C 1149.08,491.42 1117.42,464.92 1114.50,453.00 C 1111.58,441.08 1132.92,437.75 1143.00,431.50 C 1153.08,425.25 1165.50,419.17 1175.00,415.50 C 1184.50,411.83 1191.83,410.50 1200.00,409.50 C 1208.17,408.50 1213.42,401.58 1224.00,409.50 C 1234.58,417.42 1250.08,443.08 1263.50,457.00 C 1276.92,470.92 1303.08,482.08 1304.50,493.00 C 1305.92,503.92 1280.42,516.08 1272.00,522.50 C 1263.58,528.92 1260.67,529.17 1254.00,531.50 C 1247.33,533.83 1239.50,536.00 1232.00,536.50 Z M 1868.50,575.00 C 1839.08,584.58 1684.75,576.75 1643.00,576.50 C 1601.25,576.25 1629.83,575.33 1618.00,573.50 C 1606.17,571.67 1593.67,570.50 1572.00,565.50 C 1550.33,560.50 1510.50,549.83 1488.00,543.50 C 1465.50,537.17 1448.25,531.75 1437.00,527.50 C 1425.75,523.25 1414.33,528.67 1420.50,518.00 C 1426.67,507.33 1460.08,476.58 1474.00,463.50 C 1487.92,450.42 1497.17,444.33 1504.00,439.50 C 1510.83,434.67 1510.00,435.17 1515.00,434.50 C 1520.00,433.83 1524.17,428.17 1534.00,435.50 C 1543.83,442.83 1562.83,467.83 1574.00,478.50 C 1585.17,489.17 1593.83,496.00 1601.00,499.50 C 1608.17,503.00 1612.00,500.33 1617.00,499.50 C 1622.00,498.67 1624.50,497.83 1631.00,494.50 C 1637.50,491.17 1647.83,485.67 1656.00,479.50 C 1664.17,473.33 1673.00,462.33 1680.00,457.50 C 1687.00,452.67 1692.50,451.50 1698.00,450.50 C 1703.50,449.50 1703.50,449.17 1713.00,451.50 C 1722.50,453.83 1742.50,458.50 1755.00,464.50 C 1767.50,470.50 1777.25,478.42 1788.00,487.50 C 1798.75,496.58 1806.08,504.42 1819.50,519.00 C 1832.92,533.58 1897.92,565.42 1868.50,575.00 Z M 0.50,1019.00 L 0.50,860.00 L 4.00,858.50 L 1891.00,859.50 L 1892.50,861.00 L 1892.50,1019.00 Z M 127.50,993.00 L 146.00,989.50 L 162.00,981.50 L 176.50,965.00 L 179.50,954.00 L 176.00,952.50 L 149.00,953.50 L 143.50,963.00 L 133.00,970.50 L 126.00,972.50 L 105.00,971.50 L 96.00,967.50 L 87.50,959.00 L 83.50,951.00 L 81.50,931.00 L 86.50,918.00 L 95.00,908.50 L 105.00,903.50 L 112.00,902.50 L 126.00,902.50 L 137.00,905.50 L 143.50,911.00 L 149.00,920.50 L 179.00,920.50 L 179.50,915.00 L 174.50,905.00 L 166.00,895.50 L 146.00,885.50 L 127.00,881.50 L 109.00,881.50 L 103.00,883.50 L 96.00,883.50 L 89.00,886.50 L 88.00,885.50 L 75.00,891.50 L 67.00,897.50 L 61.50,903.00 L 53.50,916.00 L 49.50,933.00 L 49.50,944.00 L 53.50,961.00 L 67.00,978.50 L 82.00,987.50 L 98.00,992.50 L 127.50,993.00 Z M 294.50,993.00 L 304.00,992.50 L 321.00,987.50 L 335.00,979.50 L 345.50,968.00 L 352.50,954.00 L 354.50,943.00 L 353.50,926.00 L 349.50,913.00 L 335.00,895.50 L 320.00,887.50 L 308.00,883.50 L 293.00,881.50 L 272.00,881.50 L 260.00,883.50 L 243.00,889.50 L 225.50,903.00 L 217.50,918.00 L 214.50,932.00 L 214.50,947.00 L 217.50,958.00 L 223.50,969.00 L 233.00,978.50 L 253.00,989.50 L 272.00,993.50 L 294.50,993.00 Z M 627.50,993.00 L 640.00,991.50 L 653.00,987.50 L 661.00,983.50 L 671.50,974.00 L 675.50,960.00 L 671.50,944.00 L 667.00,939.50 L 656.00,933.50 L 594.00,921.50 L 587.50,916.00 L 586.50,912.00 L 591.00,905.50 L 596.00,903.50 L 604.00,901.50 L 621.00,901.50 L 629.00,903.50 L 636.00,907.50 L 642.00,917.50 L 669.00,917.50 L 670.50,913.00 L 665.50,901.00 L 658.00,892.50 L 651.00,888.50 L 637.00,883.50 L 623.00,881.50 L 603.00,881.50 L 589.00,883.50 L 573.00,889.50 L 565.50,895.00 L 558.50,906.00 L 557.50,918.00 L 562.50,930.00 L 573.00,938.50 L 587.00,943.50 L 615.00,947.50 L 637.00,952.50 L 643.50,957.00 L 644.50,963.00 L 641.00,968.50 L 628.00,973.50 L 605.00,973.50 L 592.00,968.50 L 586.50,962.00 L 586.50,958.00 L 585.00,956.50 L 557.00,956.50 L 554.50,958.00 L 559.50,974.00 L 564.00,979.50 L 571.00,984.50 L 586.00,990.50 L 608.00,993.50 L 627.50,993.00 Z M 1254.50,993.00 L 1278.00,987.50 L 1290.00,980.50 L 1301.50,967.00 L 1305.50,960.00 L 1306.50,954.00 L 1296.00,952.50 L 1275.00,953.50 L 1268.50,965.00 L 1262.00,969.50 L 1244.00,973.50 L 1228.00,970.50 L 1215.50,961.00 L 1209.50,949.00 L 1208.50,930.00 L 1213.50,917.00 L 1223.00,907.50 L 1232.00,903.50 L 1239.00,902.50 L 1252.00,902.50 L 1263.00,905.50 L 1271.50,913.00 L 1276.00,920.50 L 1306.00,920.50 L 1304.50,910.00 L 1299.50,903.00 L 1287.00,891.50 L 1279.00,887.50 L 1262.00,882.50 L 1228.00,882.50 L 1215.00,885.50 L 1201.00,891.50 L 1187.50,904.00 L 1181.50,913.00 L 1177.50,924.00 L 1176.50,947.00 L 1182.50,965.00 L 1196.00,980.50 L 1213.00,989.50 L 1233.00,993.50 L 1254.50,993.00 Z M 1631.50,993.00 L 1646.00,991.50 L 1663.00,985.50 L 1675.00,977.50 L 1681.50,970.00 L 1690.50,952.00 L 1689.50,951.00 L 1691.50,944.00 L 1691.50,928.00 L 1689.50,920.00 L 1681.50,905.00 L 1672.00,895.50 L 1652.00,885.50 L 1631.00,881.50 L 1611.00,881.50 L 1585.00,887.50 L 1571.00,895.50 L 1557.50,911.00 L 1557.50,914.00 L 1553.50,922.00 L 1551.50,935.00 L 1551.50,945.00 L 1554.50,957.00 L 1561.50,969.00 L 1569.00,977.50 L 1586.00,987.50 L 1610.00,993.50 L 1631.50,993.00 Z M 514.50,990.00 L 515.50,886.00 L 514.00,884.50 L 485.50,885.00 L 485.00,954.50 L 474.50,941.00 L 469.50,937.00 L 468.50,934.00 L 429.00,884.50 L 397.00,884.50 L 395.50,886.00 L 395.50,988.00 L 397.00,990.50 L 425.50,990.00 L 426.00,918.50 L 428.50,920.00 L 484.00,990.50 L 514.50,990.00 Z M 776.50,990.00 L 777.50,905.00 L 819.00,904.50 L 820.50,903.00 L 820.50,886.00 L 819.00,884.50 L 702.00,884.50 L 702.00,904.50 L 745.50,905.00 L 745.50,990.00 L 776.50,990.00 Z M 979.50,990.00 L 979.50,986.00 L 975.50,984.00 L 973.50,979.00 L 973.50,958.00 L 971.50,950.00 L 964.00,941.50 L 959.50,939.00 L 968.00,934.50 L 973.50,929.00 L 977.50,919.00 L 976.50,907.00 L 969.00,895.50 L 955.00,887.50 L 940.00,884.50 L 859.00,884.50 L 857.50,886.00 L 857.50,988.00 L 859.00,990.50 L 888.00,990.50 L 889.50,989.00 L 890.00,949.50 L 929.00,949.50 L 936.00,951.50 L 938.50,953.00 L 941.50,959.00 L 942.50,983.00 L 946.00,990.50 L 979.50,990.00 Z M 1086.50,993.00 L 1097.00,992.50 L 1110.00,989.50 L 1122.00,983.50 L 1130.50,975.00 L 1133.50,969.00 L 1135.50,964.00 L 1135.50,885.00 L 1105.00,884.50 L 1103.50,886.00 L 1104.50,895.00 L 1102.50,962.00 L 1097.00,968.50 L 1089.00,972.50 L 1070.00,973.50 L 1056.00,967.50 L 1051.50,961.00 L 1050.50,885.00 L 1019.00,884.50 L 1018.50,961.00 L 1023.50,974.00 L 1037.00,985.50 L 1050.00,990.50 L 1067.00,993.50 L 1086.50,993.00 Z M 1406.50,990.00 L 1406.50,906.00 L 1408.00,904.50 L 1450.00,904.50 L 1450.50,886.00 L 1449.00,884.50 L 1332.00,884.50 L 1332.00,904.50 L 1375.50,905.00 L 1375.50,990.00 L 1406.50,990.00 Z M 1515.50,990.00 L 1516.50,886.00 L 1515.00,884.50 L 1485.00,884.50 L 1483.50,888.00 L 1483.50,988.00 L 1485.00,990.50 L 1515.50,990.00 Z M 1851.50,990.00 L 1852.50,886.00 L 1851.00,884.50 L 1822.50,885.00 L 1822.50,951.00 L 1821.00,953.50 L 1766.00,884.50 L 1733.50,885.00 L 1734.00,990.50 L 1762.00,990.50 L 1763.50,989.00 L 1764.00,918.50 L 1821.00,990.50 L 1851.50,990.00 Z M 291.00,973.50 L 278.00,973.50 L 264.00,969.50 L 253.50,961.00 L 247.50,949.00 L 245.50,942.00 L 245.50,930.00 L 247.50,924.00 L 252.50,915.00 L 257.00,910.50 L 270.00,903.50 L 286.00,901.50 L 306.00,905.50 L 313.50,911.00 L 321.50,928.00 L 322.50,944.00 L 320.50,952.00 L 316.50,959.00 L 307.00,967.50 L 291.00,973.50 Z M 1628.00,973.50 L 1614.00,973.50 L 1606.00,971.50 L 1596.00,966.50 L 1589.50,959.00 L 1585.50,951.00 L 1583.50,944.00 L 1583.50,927.00 L 1588.50,917.00 L 1602.00,905.50 L 1619.00,901.50 L 1643.00,905.50 L 1651.50,912.00 L 1658.50,926.00 L 1659.50,947.00 L 1654.50,958.00 L 1648.00,965.50 L 1646.00,965.50 L 1643.00,968.50 L 1628.00,973.50 Z M 932.00,930.50 L 890.00,929.50 L 889.50,905.00 L 934.00,904.50 L 940.00,906.50 L 945.50,913.00 L 945.50,921.00 L 941.00,927.50 L 932.00,930.50 Z"/>
  <path fill="#0286D1" fill-rule="evenodd" d="M 1423.00,517.50 C 1402.17,520.33 1366.00,487.00 1349.00,480.50 C 1332.00,474.00 1328.67,476.50 1321.00,478.50 C 1313.33,480.50 1312.58,496.08 1303.00,492.50 C 1293.42,488.92 1276.67,470.83 1263.50,457.00 C 1250.33,443.17 1234.58,417.42 1224.00,409.50 C 1213.42,401.58 1208.17,408.50 1200.00,409.50 C 1191.83,410.50 1184.50,411.83 1175.00,415.50 C 1165.50,419.17 1153.00,425.33 1143.00,431.50 C 1133.00,437.67 1124.92,453.58 1115.00,452.50 C 1105.08,451.42 1063.50,454.83 1083.50,425.00 C 1103.50,395.17 1205.42,300.42 1235.00,273.50 C 1264.58,246.58 1251.50,264.50 1261.00,263.50 C 1270.50,262.50 1283.92,269.08 1292.00,267.50 C 1300.08,265.92 1296.67,268.00 1309.50,254.00 C 1322.33,240.00 1357.25,196.42 1369.00,183.50 C 1380.75,170.58 1376.17,177.67 1380.00,176.50 C 1383.83,175.33 1386.25,173.25 1392.00,176.50 C 1397.75,179.75 1398.00,172.33 1414.50,196.00 C 1431.00,219.67 1477.08,298.42 1491.00,318.50 C 1504.92,338.58 1493.00,321.00 1498.00,316.50 C 1503.00,312.00 1515.67,296.00 1521.00,291.50 C 1526.33,287.00 1526.83,289.17 1530.00,289.50 C 1533.17,289.83 1534.17,288.33 1540.00,293.50 C 1545.83,298.67 1556.50,314.67 1565.00,320.50 C 1573.50,326.33 1583.67,325.17 1591.00,328.50 C 1598.33,331.83 1601.08,329.25 1609.00,340.50 C 1616.92,351.75 1623.75,377.58 1638.50,396.00 C 1653.25,414.42 1690.58,440.75 1697.50,451.00 C 1704.42,461.25 1686.92,452.75 1680.00,457.50 C 1673.08,462.25 1664.17,473.33 1656.00,479.50 C 1647.83,485.67 1640.17,491.17 1631.00,494.50 C 1621.83,497.83 1610.50,502.17 1601.00,499.50 C 1591.50,496.83 1585.17,489.17 1574.00,478.50 C 1562.83,467.83 1543.83,442.83 1534.00,435.50 C 1524.17,428.17 1525.00,429.83 1515.00,434.50 C 1505.00,439.17 1489.33,449.67 1474.00,463.50 C 1458.67,477.33 1443.83,514.67 1423.00,517.50 Z M 1565.00,450.50 C 1576.58,457.58 1590.92,460.08 1595.50,461.00 C 1600.08,461.92 1596.00,459.67 1592.50,456.00 C 1589.00,452.33 1592.50,461.50 1574.50,439.00 C 1556.50,416.50 1511.67,358.50 1484.50,321.00 C 1457.33,283.50 1425.00,234.50 1411.50,214.00 C 1398.00,193.50 1406.25,202.08 1403.50,198.00 C 1400.75,193.92 1397.92,191.08 1395.00,189.50 C 1392.08,187.92 1387.92,188.25 1386.00,188.50 C 1384.08,188.75 1383.75,183.75 1383.50,191.00 C 1383.25,198.25 1387.33,221.83 1384.50,232.00 C 1381.67,242.17 1372.00,244.17 1366.50,252.00 C 1361.00,259.83 1351.83,269.17 1351.50,279.00 C 1351.17,288.83 1361.50,301.33 1364.50,311.00 C 1367.50,320.67 1369.00,327.33 1369.50,337.00 C 1370.00,346.67 1369.00,359.83 1367.50,369.00 C 1366.00,378.17 1363.67,384.83 1360.50,392.00 C 1357.33,399.17 1350.17,407.17 1348.50,412.00 C 1346.83,416.83 1349.17,419.33 1350.50,421.00 C 1351.83,422.67 1352.75,426.58 1356.50,422.00 C 1360.25,417.42 1367.25,399.08 1373.00,393.50 C 1378.75,387.92 1386.42,390.92 1391.00,388.50 C 1395.58,386.08 1395.00,386.67 1400.50,379.00 C 1406.00,371.33 1418.92,349.25 1424.00,342.50 C 1429.08,335.75 1427.83,339.17 1431.00,338.50 C 1434.17,337.83 1431.67,329.00 1443.00,338.50 C 1454.33,348.00 1485.17,382.17 1499.00,395.50 C 1512.83,408.83 1515.00,409.33 1526.00,418.50 C 1537.00,427.67 1553.42,443.42 1565.00,450.50 Z M 1190.00,399.50 C 1192.58,399.75 1199.00,398.83 1204.00,396.50 C 1209.00,394.17 1213.58,391.08 1220.00,385.50 C 1226.42,379.92 1235.08,371.25 1242.50,363.00 C 1249.92,354.75 1258.17,345.17 1264.50,336.00 C 1270.83,326.83 1276.25,317.92 1280.50,308.00 C 1284.75,298.08 1290.08,281.58 1290.00,276.50 C 1289.92,271.42 1283.33,278.17 1280.00,277.50 C 1276.67,276.83 1274.00,273.33 1270.00,272.50 C 1266.00,271.67 1260.58,270.92 1256.00,272.50 C 1251.42,274.08 1245.08,279.92 1242.50,282.00 C 1239.92,284.08 1241.17,278.83 1240.50,285.00 C 1239.83,291.17 1239.83,310.83 1238.50,319.00 C 1237.17,327.17 1234.58,330.75 1232.50,334.00 C 1230.42,337.25 1227.75,338.25 1226.00,338.50 C 1224.25,338.75 1224.67,335.50 1222.00,335.50 C 1219.33,335.50 1213.92,335.25 1210.00,338.50 C 1206.08,341.75 1202.08,345.58 1198.50,355.00 C 1194.92,364.42 1189.92,387.58 1188.50,395.00 C 1187.08,402.42 1187.42,399.25 1190.00,399.50 Z M 1619.00,407.50 C 1623.25,408.42 1631.58,409.25 1633.50,407.00 C 1635.42,404.75 1633.17,399.00 1630.50,394.00 C 1627.83,389.00 1622.08,384.25 1617.50,377.00 C 1612.92,369.75 1606.58,355.75 1603.00,350.50 C 1599.42,345.25 1599.00,346.67 1596.00,345.50 C 1593.00,344.33 1590.67,346.00 1585.00,343.50 C 1579.33,341.00 1569.17,335.33 1562.00,330.50 C 1554.83,325.67 1548.08,317.42 1542.00,314.50 C 1535.92,311.58 1525.75,309.75 1525.50,313.00 C 1525.25,316.25 1531.25,323.25 1540.50,334.00 C 1549.75,344.75 1569.75,366.25 1581.00,377.50 C 1592.25,388.75 1601.67,396.50 1608.00,401.50 C 1614.33,406.50 1614.75,406.58 1619.00,407.50 Z M 1593.00,460.50 L 1587.50,460.00 L 1590.00,459.50 L 1591.00,457.50 L 1593.00,460.50 Z"/>
  <path fill="#9BBFE6" fill-rule="evenodd" d="M 1892.50,1019.00 L 1893.00,858.50 L 1893.50,1019.00 Z M 179.00,955.50 L 148.50,954.00 L 179.00,953.50 L 179.00,955.50 Z"/>
  <path fill="#FAFDFE" fill-rule="evenodd" d="M 1590.00,459.50 C 1603.75,479.75 1580.50,457.83 1571.00,451.50 C 1561.50,445.17 1544.83,431.17 1533.00,421.50 C 1521.17,411.83 1514.83,407.67 1500.00,393.50 C 1485.17,379.33 1456.50,345.50 1444.00,336.50 C 1431.50,327.50 1431.75,334.42 1425.00,339.50 C 1418.25,344.58 1407.08,361.25 1403.50,367.00 C 1399.92,372.75 1406.25,370.58 1403.50,374.00 C 1400.75,377.42 1392.75,384.25 1387.00,387.50 C 1381.25,390.75 1373.58,389.25 1369.00,393.50 C 1364.42,397.75 1361.75,408.75 1359.50,413.00 C 1357.25,417.25 1356.67,417.83 1355.50,419.00 C 1354.33,420.17 1353.33,420.83 1352.50,420.00 C 1351.67,419.17 1348.50,419.17 1350.50,414.00 C 1352.50,408.83 1361.17,397.83 1364.50,389.00 C 1367.83,380.17 1369.83,372.83 1370.50,361.00 C 1371.17,349.17 1371.33,331.50 1368.50,318.00 C 1365.67,304.50 1353.50,290.83 1353.50,280.00 C 1353.50,269.17 1363.17,260.33 1368.50,253.00 C 1373.83,245.67 1382.25,246.58 1385.50,236.00 C 1388.75,225.42 1386.25,196.75 1388.00,189.50 C 1389.75,182.25 1393.25,190.25 1396.00,192.50 C 1398.75,194.75 1402.42,199.58 1404.50,203.00 C 1406.58,206.42 1394.50,191.83 1408.50,213.00 C 1422.50,234.17 1458.25,288.92 1488.50,330.00 C 1518.75,371.08 1576.25,439.25 1590.00,459.50 Z M 1194.00,397.50 C 1192.25,397.58 1191.75,399.25 1191.50,396.00 C 1191.25,392.75 1190.83,385.17 1192.50,378.00 C 1194.17,370.83 1197.92,359.42 1201.50,353.00 C 1205.08,346.58 1209.25,341.58 1214.00,339.50 C 1218.75,337.42 1226.42,341.75 1230.00,340.50 C 1233.58,339.25 1233.42,337.25 1235.50,332.00 C 1237.58,326.75 1241.50,316.50 1242.50,309.00 C 1243.50,301.50 1241.00,291.00 1241.50,287.00 C 1242.00,283.00 1245.00,285.67 1245.50,285.00 C 1246.00,284.33 1242.75,284.92 1244.50,283.00 C 1246.25,281.08 1251.75,274.92 1256.00,273.50 C 1260.25,272.08 1266.50,273.67 1270.00,274.50 C 1273.50,275.33 1274.17,278.00 1277.00,278.50 C 1279.83,279.00 1285.92,274.75 1287.00,277.50 C 1288.08,280.25 1285.25,289.25 1283.50,295.00 C 1281.75,300.75 1280.50,304.67 1276.50,312.00 C 1272.50,319.33 1267.92,328.08 1259.50,339.00 C 1251.08,349.92 1235.58,368.08 1226.00,377.50 C 1216.42,386.92 1207.33,392.17 1202.00,395.50 C 1196.67,398.83 1195.75,397.42 1194.00,397.50 Z M 1632.00,407.50 C 1631.92,407.75 1628.33,410.00 1623.00,407.50 C 1617.67,405.00 1610.25,401.42 1600.00,392.50 C 1589.75,383.58 1573.42,366.92 1561.50,354.00 C 1549.58,341.08 1531.75,321.25 1528.50,315.00 C 1525.25,308.75 1536.42,313.42 1542.00,316.50 C 1547.58,319.58 1552.17,327.67 1562.00,333.50 C 1571.83,339.33 1594.25,348.25 1601.00,351.50 C 1607.75,354.75 1602.58,352.42 1602.50,353.00 C 1602.42,353.58 1600.33,354.83 1600.50,355.00 C 1600.67,355.17 1600.50,349.50 1603.50,354.00 C 1606.50,358.50 1614.17,374.83 1618.50,382.00 C 1622.83,389.17 1627.33,393.17 1629.50,397.00 C 1631.67,400.83 1632.50,403.50 1631.50,405.00 C 1630.50,406.50 1623.42,405.58 1623.50,406.00 C 1623.58,406.42 1632.08,407.25 1632.00,407.50 Z M 137.00,433.50 L 95.50,432.00 L 96.00,387.50 L 137.50,388.00 L 137.00,433.50 Z M 137.00,527.50 L 95.50,527.00 L 96.00,478.50 L 137.50,479.00 L 137.00,527.50 Z M 1807.00,722.50 L 1805.50,722.00 L 1807.00,604.50 L 1807.00,722.50 Z M 440.00,796.50 L 399.50,796.00 L 400.00,654.50 L 440.50,656.00 L 440.00,796.50 Z M 1403.00,746.50 L 1370.50,746.00 L 1370.50,743.00 L 1372.50,743.00 L 1371.50,736.00 L 1373.50,734.00 L 1372.50,732.00 L 1374.50,730.00 L 1377.50,713.00 L 1376.50,707.00 L 1378.50,705.00 L 1380.50,696.00 L 1378.50,695.00 L 1380.50,693.00 L 1379.50,688.00 L 1381.50,688.00 L 1381.50,676.00 L 1383.50,676.00 L 1382.50,670.00 L 1384.50,669.00 L 1383.50,665.00 L 1385.50,664.00 L 1385.50,660.00 L 1388.00,655.50 L 1387.50,661.00 L 1390.50,681.00 L 1391.50,686.00 L 1393.50,688.00 L 1392.50,691.00 L 1394.50,692.00 L 1393.50,698.00 L 1395.50,699.00 L 1394.50,707.00 L 1396.00,710.50 L 1397.50,708.00 L 1396.50,715.00 L 1398.50,716.00 L 1397.50,722.00 L 1399.50,721.00 L 1398.50,727.00 L 1400.50,728.00 L 1399.50,734.00 L 1400.50,739.00 L 1402.50,741.00 L 1401.50,745.00 L 1403.00,744.50 L 1403.00,746.50 Z M 126.00,992.50 L 101.00,991.50 L 85.00,987.50 L 81.00,984.50 L 80.00,986.50 L 78.00,983.50 L 68.00,977.50 L 62.50,972.00 L 54.50,959.00 L 51.50,949.00 L 51.50,942.00 L 49.50,941.00 L 51.50,936.00 L 51.50,928.00 L 53.50,924.00 L 52.50,920.00 L 54.50,919.00 L 64.50,902.00 L 80.00,890.50 L 104.00,883.50 L 132.00,883.50 L 141.00,885.50 L 159.00,892.50 L 166.00,897.50 L 177.50,913.00 L 178.00,919.50 L 150.00,919.50 L 145.50,911.00 L 135.00,903.50 L 129.00,901.50 L 108.00,901.50 L 97.00,905.50 L 90.00,910.50 L 85.50,916.00 L 86.50,919.00 L 83.50,921.00 L 84.50,923.00 L 82.50,924.00 L 80.50,932.00 L 82.50,953.00 L 86.50,960.00 L 89.50,961.00 L 88.50,963.00 L 100.00,971.50 L 109.00,974.50 L 124.00,974.50 L 132.00,972.50 L 141.00,967.50 L 145.50,963.00 L 150.00,954.50 L 178.50,955.00 L 175.50,964.00 L 173.50,964.00 L 173.50,967.00 L 167.50,975.00 L 160.00,981.50 L 148.00,987.50 L 126.00,992.50 Z M 291.00,992.50 L 267.00,991.50 L 254.00,988.50 L 241.00,981.50 L 239.00,982.50 L 227.50,971.00 L 228.00,969.50 L 227.00,970.50 L 225.50,969.00 L 219.50,959.00 L 216.50,947.00 L 214.50,947.00 L 214.50,933.00 L 216.50,934.00 L 216.50,927.00 L 219.50,921.00 L 219.50,916.00 L 221.50,915.00 L 224.50,907.00 L 231.00,899.50 L 235.00,897.50 L 237.00,894.50 L 247.00,889.50 L 268.00,883.50 L 305.00,883.50 L 306.00,885.50 L 321.00,889.50 L 332.00,895.50 L 341.50,904.00 L 350.50,919.00 L 352.50,927.00 L 353.50,949.00 L 351.50,950.00 L 351.50,953.00 L 345.50,966.00 L 340.50,970.00 L 341.50,971.00 L 334.00,978.50 L 317.00,987.50 L 316.00,986.50 L 307.00,990.50 L 291.00,992.50 Z M 626.00,992.50 L 599.00,991.50 L 581.00,987.50 L 566.00,979.50 L 559.50,971.00 L 557.50,964.00 L 555.50,963.00 L 558.00,957.50 L 584.00,957.50 L 586.50,965.00 L 591.00,969.50 L 599.00,973.50 L 603.00,972.50 L 603.00,974.50 L 630.00,974.50 L 637.00,972.50 L 639.00,969.50 L 641.00,970.50 L 645.50,965.00 L 645.50,958.00 L 641.00,952.50 L 632.00,949.50 L 615.00,947.50 L 612.00,945.50 L 604.00,946.50 L 603.00,944.50 L 593.00,943.50 L 579.00,939.50 L 565.50,931.00 L 559.50,921.00 L 559.50,908.00 L 565.50,897.00 L 576.00,889.50 L 586.00,885.50 L 591.00,886.50 L 591.00,884.50 L 596.00,883.50 L 635.00,883.50 L 635.00,885.50 L 639.00,884.50 L 640.00,886.50 L 652.00,890.50 L 658.50,895.00 L 663.00,901.50 L 666.50,903.00 L 665.50,905.00 L 667.50,907.00 L 669.50,915.00 L 664.00,916.50 L 642.00,915.50 L 636.00,905.50 L 622.00,900.50 L 598.00,901.50 L 590.00,904.50 L 584.50,910.00 L 585.50,916.00 L 590.00,921.50 L 604.00,925.50 L 611.00,925.50 L 619.00,928.50 L 621.00,926.50 L 622.00,928.50 L 654.00,934.50 L 667.00,941.50 L 671.50,947.00 L 673.50,952.00 L 673.50,965.00 L 668.00,975.50 L 655.00,985.50 L 651.00,986.50 L 650.00,988.50 L 647.00,987.50 L 644.00,989.50 L 626.00,992.50 Z M 1252.00,992.50 L 1227.00,991.50 L 1224.00,989.50 L 1223.00,990.50 L 1214.00,988.50 L 1200.00,981.50 L 1190.50,974.00 L 1185.50,967.00 L 1180.50,958.00 L 1178.50,948.00 L 1176.50,947.00 L 1178.50,945.00 L 1176.50,931.00 L 1178.50,929.00 L 1181.50,916.00 L 1188.50,905.00 L 1201.00,893.50 L 1217.00,886.50 L 1223.00,886.50 L 1230.00,883.50 L 1259.00,883.50 L 1268.00,885.50 L 1286.00,892.50 L 1290.00,895.50 L 1299.50,905.00 L 1298.50,906.00 L 1305.50,914.00 L 1304.00,919.50 L 1277.00,919.50 L 1269.50,908.00 L 1267.00,907.50 L 1263.00,903.50 L 1255.00,901.50 L 1236.00,901.50 L 1228.00,903.50 L 1219.00,908.50 L 1212.50,916.00 L 1208.50,924.00 L 1206.50,937.00 L 1208.50,950.00 L 1213.50,961.00 L 1227.00,971.50 L 1236.00,974.50 L 1250.00,974.50 L 1258.00,972.50 L 1268.00,967.50 L 1273.50,961.00 L 1276.00,954.50 L 1304.50,955.00 L 1299.50,968.00 L 1289.00,979.50 L 1274.00,987.50 L 1252.00,992.50 Z M 1627.00,992.50 L 1605.00,991.50 L 1600.00,989.50 L 1594.00,990.50 L 1594.00,988.50 L 1577.00,981.50 L 1563.50,970.00 L 1554.50,954.00 L 1552.50,945.00 L 1552.50,927.00 L 1554.50,928.00 L 1554.50,920.00 L 1556.50,919.00 L 1562.50,906.00 L 1571.00,897.50 L 1582.00,890.50 L 1606.00,883.50 L 1638.00,883.50 L 1642.00,885.50 L 1648.00,885.50 L 1659.00,890.50 L 1661.00,889.50 L 1663.00,892.50 L 1672.00,897.50 L 1684.50,912.00 L 1688.50,921.00 L 1687.50,925.00 L 1689.50,926.00 L 1690.50,931.00 L 1690.50,950.00 L 1688.50,951.00 L 1687.50,957.00 L 1683.50,965.00 L 1678.00,971.50 L 1676.50,971.00 L 1676.50,974.00 L 1670.00,979.50 L 1669.00,978.50 L 1665.00,982.50 L 1655.00,987.50 L 1627.00,992.50 Z M 511.00,989.50 L 485.00,989.50 L 426.00,915.50 L 424.50,988.00 L 423.00,989.50 L 397.00,988.50 L 397.50,886.00 L 428.00,886.50 L 433.00,892.50 L 435.50,893.00 L 434.50,894.00 L 436.50,897.00 L 450.50,914.00 L 449.50,915.00 L 452.50,916.00 L 457.50,924.00 L 474.50,944.00 L 473.50,945.00 L 485.00,957.50 L 486.50,887.00 L 488.00,885.50 L 512.00,885.50 L 514.50,888.00 L 513.50,975.00 L 514.50,988.00 L 511.00,989.50 Z M 775.00,989.50 L 746.50,989.00 L 746.50,904.00 L 704.00,903.50 L 702.50,902.00 L 702.50,888.00 L 704.00,885.50 L 818.00,885.50 L 819.50,887.00 L 820.50,893.00 L 819.50,902.00 L 818.00,903.50 L 777.00,903.50 L 775.50,905.00 L 776.50,988.00 L 775.00,989.50 Z M 977.00,989.50 L 946.00,988.50 L 942.50,973.00 L 943.50,972.00 L 941.50,955.00 L 939.00,951.50 L 935.00,949.50 L 930.00,950.50 L 930.00,948.50 L 888.00,948.50 L 887.50,989.00 L 860.00,989.50 L 858.50,988.00 L 858.50,888.00 L 861.00,885.50 L 937.00,885.50 L 956.00,889.50 L 969.00,897.50 L 971.50,901.00 L 970.50,902.00 L 972.50,902.00 L 975.50,908.00 L 975.50,922.00 L 967.00,933.50 L 954.50,940.00 L 964.00,943.50 L 969.50,949.00 L 972.50,962.00 L 971.50,977.00 L 973.50,984.00 L 978.50,988.00 L 977.00,989.50 Z M 1083.00,992.50 L 1061.00,991.50 L 1042.00,986.50 L 1041.00,984.50 L 1040.00,985.50 L 1032.00,980.50 L 1023.50,971.00 L 1019.50,960.00 L 1019.50,887.00 L 1021.00,885.50 L 1048.00,885.50 L 1049.50,887.00 L 1049.50,959.00 L 1056.00,969.50 L 1068.00,974.50 L 1090.00,973.50 L 1098.00,969.50 L 1104.50,961.00 L 1104.50,887.00 L 1106.00,885.50 L 1134.00,885.50 L 1135.50,887.00 L 1135.50,957.00 L 1131.50,970.00 L 1125.00,979.50 L 1111.00,987.50 L 1083.00,992.50 Z M 1405.00,989.50 L 1377.00,989.50 L 1375.50,988.00 L 1375.50,904.00 L 1334.00,903.50 L 1332.50,902.00 L 1332.50,887.00 L 1334.00,885.50 L 1448.50,886.00 L 1448.00,903.50 L 1405.50,904.00 L 1405.00,989.50 Z M 1514.00,989.50 L 1485.50,989.00 L 1485.50,887.00 L 1487.00,885.50 L 1514.00,885.50 L 1515.50,887.00 L 1515.50,986.00 L 1514.00,989.50 Z M 1852.00,989.50 L 1823.00,989.50 L 1820.00,987.50 L 1815.50,980.00 L 1787.50,946.00 L 1788.50,945.00 L 1786.50,945.00 L 1771.50,926.00 L 1772.50,925.00 L 1763.00,915.50 L 1761.50,916.00 L 1761.50,989.00 L 1735.00,989.50 L 1734.50,887.00 L 1736.00,885.50 L 1765.00,885.50 L 1790.50,917.00 L 1793.50,921.00 L 1792.50,922.00 L 1794.50,922.00 L 1805.50,936.00 L 1805.50,939.00 L 1808.50,940.00 L 1813.50,946.00 L 1812.50,947.00 L 1823.00,957.50 L 1823.50,887.00 L 1825.00,885.50 L 1852.00,885.50 L 1852.00,989.50 Z M 295.50,974.00 L 307.00,969.50 L 317.50,961.00 L 323.50,947.00 L 323.50,931.00 L 321.50,923.00 L 316.50,913.00 L 305.00,903.50 L 286.00,900.50 L 272.00,902.50 L 271.00,901.50 L 259.00,907.50 L 251.50,914.00 L 247.50,920.00 L 248.50,921.00 L 245.50,925.00 L 246.50,929.00 L 244.50,930.00 L 244.50,942.00 L 246.50,948.00 L 245.50,949.00 L 248.50,951.00 L 247.50,952.00 L 249.50,953.00 L 248.50,955.00 L 251.50,961.00 L 263.00,970.50 L 274.00,974.50 L 295.50,974.00 Z M 1632.50,974.00 L 1644.00,969.50 L 1652.00,963.50 L 1659.50,951.00 L 1661.50,935.00 L 1660.50,930.00 L 1658.50,929.00 L 1659.50,925.00 L 1656.50,918.00 L 1649.00,907.50 L 1637.00,901.50 L 1624.00,902.50 L 1623.00,900.50 L 1619.00,900.50 L 1599.00,905.50 L 1587.50,916.00 L 1582.50,926.00 L 1581.50,940.00 L 1584.50,952.00 L 1586.50,953.00 L 1586.50,958.00 L 1596.00,968.50 L 1604.00,972.50 L 1611.00,974.50 L 1632.50,974.00 Z M 935.50,931.00 L 942.00,928.50 L 946.50,923.00 L 947.50,915.00 L 942.00,905.50 L 936.00,903.50 L 887.50,904.00 L 888.00,931.50 L 935.50,931.00 Z"/>
</svg>