<?xml version="1.0" encoding="utf-8"?>
<!-- Generator: Adobe Illustrator 12.0.1, SVG Export Plug-In  -->
<!DOCTYPE svg PUBLIC "-//W3C//DTD SVG 1.1//EN" "http://www.w3.org/Graphics/SVG/1.1/DTD/svg11.dtd" [
	<!ENTITY ns_flows "http://ns.adobe.com/Flows/1.0/">
	<!ENTITY ns_svg "http://www.w3.org/2000/svg">
	<!ENTITY ns_xlink "http://www.w3.org/1999/xlink">
]>
<svg  version="1.1" xmlns="&ns_svg;" xmlns:xlink="&ns_xlink;" xmlns:a="http://ns.adobe.com/AdobeSVGViewerExtensions/3.0/"
	 width="288" height="288" viewBox="0 0 288 288" enable-background="new 0 0 288 288" xml:space="preserve">
<defs>
</defs>
<path fill="#164883" d="M224.025,211.495l16.871-30.584l-121.281,0.792c-3.428,0-7.119-0.792-10.284-2.374
	c-5.273-2.635-8.698-7.907-10.023-13.708l-16.609,30.844c1.057,5.802,4.746,11.074,10.023,13.979
	c2.896,1.585,6.323,2.369,9.757,2.369L224.025,211.495z"/>
<path fill="#164883" d="M141.235,9.26l56.949,106.001c2.11,2.898,2.639,6.854,2.639,10.017c0,6.066-2.639,11.868-7.118,15.295
	h35.334c4.483-3.427,7.378-9.229,7.378-15.295c0-3.163-1.049-7.119-2.895-10.017L176.301,9.26H141.235z"/>
<path fill="#164883" d="M128.84,143.472c-5.007-2.899-8.963-7.912-10.018-13.445l-16.872,30.849
	c1.313,5.802,4.747,10.806,10.282,13.709c2.898,1.846,6.327,2.37,10.017,2.37l121.282-0.524l16.881-31.378l-121.286,0.793
	C135.695,145.846,132.007,145.053,128.84,143.472z"/>
<path fill="#164883" d="M160.481,125.278c0,6.066-2.894,11.599-7.119,15.295h34.81c4.745-3.696,7.639-9.229,7.639-15.295
	c0-3.163-1.048-7.119-2.894-10.017L135.695,9h-35.333l57.226,106.261C159.434,118.159,160.481,122.115,160.481,125.278z"/>
<path fill="#164883" d="M114.343,76.24c-3.168,1.837-5.54,4.476-7.646,7.379l-58.8,104.679L65.033,220.2l57.216-104.675
	c1.846-3.163,6.331-7.647,9.229-9.233c5.535-2.11,11.341-2.11,16.606,0l-16.871-31.114C125.94,73.333,119.615,73.597,114.343,76.24z
	"/>
<path fill="#164883" d="M45.787,184.867l57.221-104.672c1.839-3.167,6.323-7.651,9.225-9.237c5.539-2.105,11.334-2.105,16.607,0
	L112.232,39.85c-5.535-1.846-11.87-1.577-17.139,1.057c-3.161,1.581-5.8,4.479-7.649,7.383l-58.8,104.675L45.787,184.867z"/>
<path fill="#164883" d="M40.513,225.737H23.9v52.466h14.769c6.856,0,12.129-0.789,17.664-5.005
	c6.856-4.748,10.55-12.132,10.55-21.096C66.883,236.548,56.6,225.737,40.513,225.737z M40.513,271.084h-9.229v-38.228h7.647
	c12.922,0,20.304,7.643,20.304,19.246C59.234,263.704,52.115,271.084,40.513,271.084z"/>
<path fill="#164883" d="M102.479,265.556c-2.116,4.212-6.067,6.325-10.812,6.325c-6.33,0-11.607-4.483-12.92-11.074h33.223v-1.058
	c0-5.536-1.06-9.492-3.693-13.185c-3.691-5.797-9.758-9.225-16.609-9.225c-5.802,0-10.813,2.107-14.765,6.327
	c-3.429,4.22-5.539,8.964-5.539,14.497c0,5.54,2.11,10.818,5.8,14.774c3.958,3.946,8.702,6.062,14.504,6.062
	c8.695,0,15.292-4.745,18.981-13.444H102.479z M91.667,244.46c6.062,0,10.546,3.427,12.391,10.285H79.275
	C80.854,248.146,85.599,244.46,91.667,244.46z"/>
<rect x="118.031" y="225.732" fill="#164883" width="7.118" height="52.471"/>
<path fill="#164883" d="M150.46,225.737h-17.136v52.466h14.761c6.858,0,12.396-0.789,17.669-5.005
	c6.854-4.748,10.547-12.132,10.547-21.096C176.301,236.548,166.023,225.737,150.46,225.737z M150.2,271.084h-9.491v-38.228h7.905
	c12.664,0,20.038,7.643,20.038,19.246C168.652,263.704,161.534,271.084,150.2,271.084z"/>
<path fill="#164883" d="M226.136,232.592c-5.005-5.273-11.074-7.911-18.453-7.911c-7.123,0-13.713,2.638-18.462,7.911
	c-5.533,5.008-8.433,11.868-8.433,18.723c0,7.377,2.631,13.968,6.847,18.717c5.542,5.797,11.871,8.969,20.048,8.969
	c7.639,0,14.232-3.172,19.505-8.969c4.75-4.749,7.124-10.811,7.124-18.717C234.312,243.931,231.412,237.6,226.136,232.592z
	 M207.683,271.356c-5.014,0-10.021-1.845-13.713-5.801c-3.163-3.431-5.009-8.437-5.009-13.709c0-5.282,1.846-10.291,5.802-13.981
	c3.162-3.427,7.646-5.273,12.92-5.273c5.268,0,9.753,1.847,13.709,6.065c3.158,3.428,5.004,7.907,5.004,12.657
	C226.396,262.912,218.224,271.356,207.683,271.356z"/>
<polygon fill="#164883" points="237.215,232.856 246.704,232.856 246.704,278.203 254.351,278.203 254.351,232.856 264.1,232.856 
	264.1,225.737 237.215,225.737 "/>
<rect id="_x3C_Slice_x3E__2_" fill="none" width="288" height="288"/>
</svg>
