<?xml version="1.0" encoding="UTF-8" standalone="no"?>
<!DOCTYPE svg PUBLIC "-//W3C//DTD SVG 1.1//EN" "http://www.w3.org/Graphics/SVG/1.1/DTD/svg11.dtd">
<svg width="100%" height="100%" viewBox="0 0 874 151" version="1.1" xmlns="http://www.w3.org/2000/svg" xmlns:xlink="http://www.w3.org/1999/xlink" xml:space="preserve" xmlns:serif="http://www.serif.com/" style="fill-rule:evenodd;clip-rule:evenodd;stroke-miterlimit:10;">
    <g transform="matrix(1.70667,0,0,1.70667,0,0)">
        <g transform="matrix(0.457498,0,0,0.457498,15.3653,28.2392)">
            <g transform="matrix(4.16667,0,0,4.16667,-100.543,-3115.45)">
                <clipPath id="_clip1">
                    <path d="M28.168,738.796L29.425,743.737L19.213,743.737L25.788,773.138L48.398,773.138L54.968,743.689L44.806,743.689L46.033,738.796L28.168,738.796Z" clip-rule="nonzero"/>
                </clipPath>
                <g clip-path="url(#_clip1)">
                    <g transform="matrix(1,0,0,1,0,719.934)">
                        <rect x="19.213" y="18.862" width="35.755" height="34.342" style="fill:rgb(0,169,81);"/>
                    </g>
                    <g transform="matrix(1,0,0,1,21.3,736.115)">
                        <path d="M0,41.172C6.906,24.145 10.585,13.885 50.301,0.845C52.876,0 13.462,9.324 11.039,40.106" style="fill:rgb(3,81,144);fill-rule:nonzero;"/>
                    </g>
                    <g transform="matrix(1,0,0,1,20.653,758.483)">
                        <path d="M0,-26.261C39.867,-23.447 9.635,-18.387 48.703,-16.713C46.041,-16.826 17.565,-18.982 -5.846,0" style="fill:rgb(3,81,144);fill-rule:nonzero;"/>
                    </g>
                    <g transform="matrix(1,0,0,1,5.3692,740.471)">
                        <path d="M0,31.939C11.151,21.856 27.61,2.332 61.316,-0.018C65.028,-0.276 31.87,-1.674 10.438,33.613" style="fill:rgb(3,81,144);fill-rule:nonzero;"/>
                    </g>
                </g>
            </g>
            <g transform="matrix(0,-4.16667,-4.16667,0,75.1739,55.8708)">
                <path d="M-4.275,-4.275C-6.637,-4.275 -8.55,-2.361 -8.55,0C-8.55,2.361 -6.637,4.275 -4.275,4.275C-1.914,4.275 0,2.361 0,0C0,-2.361 -1.914,-4.275 -4.275,-4.275" style="fill:rgb(3,81,144);fill-rule:nonzero;"/>
            </g>
            <g transform="matrix(4.16667,0,0,4.16667,216.328,44.25)">
                <path d="M0,7.589C0.476,7.589 0.926,7.511 1.35,7.356C1.774,7.201 2.144,6.968 2.46,6.658C2.775,6.348 3.026,5.957 3.212,5.486C3.399,5.015 3.492,4.46 3.492,3.818C3.492,3.177 3.401,2.615 3.22,2.134C3.039,1.653 2.791,1.255 2.475,0.939C2.16,0.624 1.79,0.388 1.366,0.233C0.941,0.078 0.491,0 0.015,0L-1.955,0L-1.955,7.589L0,7.589ZM-3.818,9.296L-3.818,-1.707L0.078,-1.707C0.823,-1.707 1.521,-1.585 2.173,-1.342C2.824,-1.099 3.391,-0.742 3.872,-0.271C4.353,0.199 4.733,0.779 5.013,1.467C5.292,2.155 5.432,2.939 5.432,3.818C5.432,4.697 5.292,5.478 5.013,6.161C4.733,6.844 4.35,7.418 3.864,7.884C3.378,8.349 2.809,8.701 2.157,8.939C1.505,9.177 0.807,9.296 0.062,9.296" style="fill:rgb(18,44,68);fill-rule:nonzero;"/>
            </g>
            <g transform="matrix(4.16667,0,0,4.16667,267.411,70.7)">
                <path d="M0,-1.661C-0.01,-1.878 -0.054,-2.088 -0.132,-2.29C-0.209,-2.491 -0.326,-2.67 -0.481,-2.825C-0.636,-2.98 -0.828,-3.104 -1.055,-3.197C-1.283,-3.29 -1.552,-3.337 -1.862,-3.337C-2.142,-3.337 -2.393,-3.288 -2.615,-3.19C-2.837,-3.091 -3.026,-2.962 -3.181,-2.802C-3.337,-2.641 -3.461,-2.46 -3.554,-2.258C-3.647,-2.057 -3.699,-1.857 -3.709,-1.661L0,-1.661ZM1.723,0.791C1.619,1.122 1.469,1.433 1.273,1.722C1.076,2.012 0.833,2.265 0.543,2.482C0.253,2.7 -0.078,2.87 -0.45,2.995C-0.823,3.119 -1.236,3.181 -1.692,3.181C-2.209,3.181 -2.7,3.09 -3.166,2.909C-3.631,2.728 -4.04,2.465 -4.392,2.118C-4.744,1.771 -5.026,1.347 -5.238,0.845C-5.45,0.344 -5.556,-0.228 -5.556,-0.87C-5.556,-1.469 -5.455,-2.013 -5.253,-2.499C-5.051,-2.985 -4.78,-3.402 -4.438,-3.748C-4.097,-4.095 -3.704,-4.364 -3.259,-4.555C-2.814,-4.747 -2.354,-4.842 -1.878,-4.842C-1.298,-4.842 -0.779,-4.749 -0.318,-4.563C0.142,-4.377 0.53,-4.113 0.846,-3.772C1.161,-3.43 1.402,-3.019 1.567,-2.538C1.733,-2.057 1.816,-1.516 1.816,-0.916C1.816,-0.771 1.81,-0.645 1.8,-0.536C1.79,-0.427 1.779,-0.363 1.769,-0.342L-3.756,-0.342C-3.745,-0.052 -3.683,0.212 -3.569,0.449C-3.456,0.688 -3.306,0.895 -3.119,1.07C-2.933,1.246 -2.718,1.383 -2.475,1.482C-2.232,1.58 -1.971,1.629 -1.692,1.629C-1.143,1.629 -0.722,1.503 -0.427,1.249C-0.132,0.995 0.078,0.682 0.202,0.31" style="fill:rgb(18,44,68);fill-rule:nonzero;"/>
            </g>
            <g transform="matrix(4.16667,0,0,4.16667,306.274,78.8417)">
                <path d="M0,-2.793C0,-3.507 -0.186,-4.076 -0.559,-4.5C-0.931,-4.924 -1.423,-5.136 -2.033,-5.136C-2.333,-5.136 -2.607,-5.079 -2.855,-4.966C-3.104,-4.852 -3.316,-4.694 -3.492,-4.492C-3.668,-4.291 -3.807,-4.045 -3.911,-3.755C-4.014,-3.465 -4.066,-3.145 -4.066,-2.793C-4.066,-2.069 -3.875,-1.492 -3.492,-1.063C-3.109,-0.633 -2.623,-0.419 -2.033,-0.419C-1.433,-0.419 -0.944,-0.633 -0.566,-1.063C-0.189,-1.492 0,-2.069 0,-2.793M-5.835,3.942L-5.835,-6.564L-4.097,-6.564L-4.097,-5.54C-3.911,-5.871 -3.611,-6.153 -3.197,-6.386C-2.783,-6.618 -2.281,-6.735 -1.692,-6.735C-1.133,-6.735 -0.636,-6.634 -0.202,-6.432C0.233,-6.23 0.597,-5.954 0.892,-5.602C1.187,-5.25 1.412,-4.834 1.567,-4.353C1.723,-3.872 1.8,-3.352 1.8,-2.793C1.8,-2.224 1.717,-1.699 1.552,-1.218C1.386,-0.737 1.148,-0.318 0.838,0.039C0.528,0.396 0.153,0.676 -0.287,0.877C-0.727,1.079 -1.216,1.18 -1.754,1.18C-2.302,1.18 -2.773,1.079 -3.166,0.877C-3.559,0.676 -3.854,0.43 -4.05,0.14L-4.05,3.942" style="fill:rgb(18,44,68);fill-rule:nonzero;"/>
            </g>
            <g transform="matrix(4.16667,0,0,4.16667,330.974,56.4042)">
                <path d="M0,5.199C0.248,5.199 0.486,5.165 0.714,5.098C0.941,5.031 1.141,4.922 1.311,4.772C1.482,4.622 1.619,4.423 1.723,4.175C1.826,3.926 1.878,3.616 1.878,3.244L1.878,2.902L-0.093,3.197C-0.373,3.249 -0.611,3.355 -0.807,3.515C-1.004,3.676 -1.102,3.911 -1.102,4.221C-1.102,4.48 -1.009,4.708 -0.823,4.904C-0.636,5.101 -0.362,5.199 0,5.199M-2.902,4.33C-2.902,3.988 -2.843,3.689 -2.724,3.43C-2.605,3.171 -2.444,2.946 -2.242,2.755C-2.041,2.563 -1.8,2.411 -1.521,2.297C-1.242,2.183 -0.942,2.1 -0.621,2.048L1.319,1.754C1.536,1.723 1.684,1.658 1.761,1.56C1.839,1.461 1.878,1.345 1.878,1.211C1.878,0.89 1.764,0.618 1.536,0.396C1.309,0.173 0.947,0.062 0.45,0.062C-0.026,0.062 -0.393,0.194 -0.652,0.458C-0.911,0.722 -1.061,1.045 -1.102,1.428L-2.747,1.055C-2.716,0.735 -2.618,0.424 -2.452,0.124C-2.287,-0.176 -2.069,-0.44 -1.8,-0.667C-1.531,-0.895 -1.208,-1.076 -0.83,-1.21C-0.453,-1.345 -0.031,-1.412 0.435,-1.412C1.014,-1.412 1.508,-1.335 1.917,-1.179C2.325,-1.024 2.656,-0.817 2.91,-0.559C3.163,-0.3 3.349,0 3.468,0.341C3.587,0.683 3.647,1.04 3.647,1.412L3.647,5.168C3.647,5.509 3.66,5.786 3.686,5.998C3.711,6.21 3.73,6.337 3.74,6.378L2.064,6.378C2.054,6.358 2.038,6.267 2.017,6.107C1.997,5.946 1.986,5.716 1.986,5.416C1.81,5.706 1.531,5.978 1.148,6.231C0.765,6.484 0.269,6.611 -0.341,6.611C-0.735,6.611 -1.089,6.549 -1.405,6.425C-1.72,6.301 -1.989,6.133 -2.211,5.921C-2.434,5.709 -2.605,5.465 -2.724,5.191C-2.843,4.917 -2.902,4.63 -2.902,4.33" style="fill:rgb(18,44,68);fill-rule:nonzero;"/>
            </g>
            <g transform="matrix(4.16667,0,0,4.16667,373.328,75.1583)">
                <path d="M0,-3.895C-0.207,-3.926 -0.403,-3.942 -0.59,-3.942C-1.293,-3.942 -1.808,-3.75 -2.134,-3.367C-2.46,-2.984 -2.623,-2.436 -2.623,-1.722L-2.623,1.878L-4.423,1.878L-4.423,-5.68L-2.669,-5.68L-2.669,-4.469C-2.493,-4.883 -2.209,-5.204 -1.816,-5.431C-1.423,-5.659 -0.978,-5.773 -0.481,-5.773C-0.367,-5.773 -0.269,-5.767 -0.186,-5.757C-0.103,-5.747 -0.041,-5.736 0,-5.726" style="fill:rgb(18,44,68);fill-rule:nonzero;"/>
            </g>
            <g transform="matrix(4.16667,0,0,4.16667,388.845,73.7375)">
                <path d="M0,-5.339L1.567,-5.339L1.567,-3.74L0,-3.74L0,-0.233C0,0.098 0.078,0.339 0.233,0.489C0.388,0.639 0.631,0.714 0.962,0.714C1.086,0.714 1.211,0.706 1.335,0.69C1.459,0.675 1.541,0.662 1.583,0.651L1.583,2.141C1.531,2.162 1.417,2.196 1.241,2.242C1.065,2.289 0.812,2.312 0.481,2.312C-0.223,2.312 -0.776,2.116 -1.18,1.722C-1.583,1.329 -1.785,0.776 -1.785,0.062L-1.785,-3.74L-3.181,-3.74L-3.181,-5.339L-2.793,-5.339C-2.39,-5.339 -2.095,-5.453 -1.909,-5.68C-1.723,-5.908 -1.629,-6.187 -1.629,-6.518L-1.629,-7.651L0,-7.651" style="fill:rgb(18,44,68);fill-rule:nonzero;"/>
            </g>
            <g transform="matrix(4.16667,0,0,4.16667,402.228,50.5875)">
                <path d="M0,7.775L0,0.217L1.723,0.217L1.723,1.179C1.94,0.797 2.26,0.504 2.685,0.303C3.109,0.101 3.533,0 3.957,0C4.454,0 4.904,0.111 5.307,0.334C5.711,0.556 6.016,0.89 6.223,1.335C6.523,0.838 6.883,0.491 7.302,0.295C7.721,0.098 8.179,0 8.675,0C9.017,0 9.348,0.057 9.669,0.171C9.989,0.285 10.274,0.458 10.522,0.69C10.77,0.923 10.969,1.221 11.119,1.583C11.269,1.945 11.344,2.374 11.344,2.871L11.344,7.775L9.606,7.775L9.606,3.166C9.606,2.721 9.49,2.351 9.257,2.056C9.024,1.761 8.654,1.614 8.148,1.614C7.672,1.614 7.291,1.777 7.007,2.103C6.722,2.429 6.58,2.824 6.58,3.29L6.58,7.775L4.811,7.775L4.811,3.166C4.811,2.731 4.697,2.364 4.47,2.064C4.242,1.764 3.869,1.614 3.352,1.614C2.866,1.614 2.483,1.772 2.204,2.087C1.924,2.403 1.785,2.804 1.785,3.29L1.785,7.775" style="fill:rgb(18,44,68);fill-rule:nonzero;"/>
            </g>
            <g transform="matrix(4.16667,0,0,4.16667,479.307,70.7)">
                <path d="M0,-1.661C-0.01,-1.878 -0.054,-2.088 -0.132,-2.29C-0.209,-2.491 -0.326,-2.67 -0.481,-2.825C-0.636,-2.98 -0.828,-3.104 -1.055,-3.197C-1.283,-3.29 -1.552,-3.337 -1.862,-3.337C-2.142,-3.337 -2.393,-3.288 -2.615,-3.19C-2.838,-3.091 -3.026,-2.962 -3.181,-2.802C-3.337,-2.641 -3.461,-2.46 -3.554,-2.258C-3.647,-2.057 -3.699,-1.857 -3.709,-1.661L0,-1.661ZM1.723,0.791C1.619,1.122 1.469,1.433 1.273,1.722C1.076,2.012 0.833,2.265 0.543,2.482C0.253,2.7 -0.078,2.87 -0.45,2.995C-0.823,3.119 -1.236,3.181 -1.692,3.181C-2.209,3.181 -2.7,3.09 -3.166,2.909C-3.631,2.728 -4.04,2.465 -4.392,2.118C-4.744,1.771 -5.026,1.347 -5.238,0.845C-5.45,0.344 -5.556,-0.228 -5.556,-0.87C-5.556,-1.469 -5.455,-2.013 -5.253,-2.499C-5.052,-2.985 -4.78,-3.402 -4.438,-3.748C-4.097,-4.095 -3.704,-4.364 -3.259,-4.555C-2.814,-4.747 -2.354,-4.842 -1.878,-4.842C-1.298,-4.842 -0.779,-4.749 -0.318,-4.563C0.142,-4.377 0.53,-4.113 0.846,-3.772C1.161,-3.43 1.402,-3.019 1.567,-2.538C1.733,-2.057 1.816,-1.516 1.816,-0.916C1.816,-0.771 1.81,-0.645 1.8,-0.536C1.79,-0.427 1.779,-0.363 1.769,-0.342L-3.756,-0.342C-3.745,-0.052 -3.683,0.212 -3.569,0.449C-3.456,0.688 -3.306,0.895 -3.119,1.07C-2.933,1.246 -2.719,1.383 -2.475,1.482C-2.232,1.58 -1.971,1.629 -1.692,1.629C-1.143,1.629 -0.722,1.503 -0.427,1.249C-0.132,0.995 0.078,0.682 0.202,0.31" style="fill:rgb(18,44,68);fill-rule:nonzero;"/>
            </g>
            <g transform="matrix(4.16667,0,0,4.16667,501.357,50.5875)">
                <path d="M0,7.775L-1.8,7.775L-1.8,0.217L-0.047,0.217L-0.047,1.226C0.202,0.791 0.53,0.479 0.939,0.287C1.347,0.096 1.764,0 2.188,0C2.654,0 3.057,0.078 3.399,0.233C3.74,0.388 4.022,0.603 4.244,0.877C4.467,1.151 4.635,1.469 4.749,1.831C4.863,2.193 4.919,2.581 4.919,2.995L4.919,7.775L3.119,7.775L3.119,3.306C3.119,2.84 3.003,2.444 2.77,2.118C2.537,1.792 2.136,1.629 1.567,1.629C1.05,1.629 0.66,1.803 0.396,2.149C0.132,2.496 0,2.918 0,3.414" style="fill:rgb(18,44,68);fill-rule:nonzero;"/>
            </g>
            <g transform="matrix(4.16667,0,0,4.16667,540.411,73.7375)">
                <path d="M0,-5.339L1.567,-5.339L1.567,-3.74L0,-3.74L0,-0.233C0,0.098 0.078,0.339 0.233,0.489C0.388,0.639 0.631,0.714 0.962,0.714C1.086,0.714 1.211,0.706 1.335,0.69C1.459,0.675 1.541,0.662 1.583,0.651L1.583,2.141C1.531,2.162 1.417,2.196 1.241,2.242C1.065,2.289 0.812,2.312 0.481,2.312C-0.223,2.312 -0.776,2.116 -1.18,1.722C-1.583,1.329 -1.785,0.776 -1.785,0.062L-1.785,-3.74L-3.181,-3.74L-3.181,-5.339L-2.793,-5.339C-2.39,-5.339 -2.095,-5.453 -1.909,-5.68C-1.723,-5.908 -1.629,-6.187 -1.629,-6.518L-1.629,-7.651L0,-7.651" style="fill:rgb(18,44,68);fill-rule:nonzero;"/>
            </g>
            <g transform="matrix(4.16667,0,0,4.16667,583.411,57.25)">
                <path d="M0,4.795C0.279,4.795 0.546,4.743 0.799,4.64C1.053,4.536 1.278,4.384 1.474,4.182C1.671,3.98 1.826,3.73 1.94,3.429C2.054,3.129 2.111,2.783 2.111,2.39C2.111,1.996 2.054,1.652 1.94,1.358C1.826,1.063 1.671,0.814 1.474,0.613C1.278,0.411 1.053,0.261 0.799,0.163C0.546,0.064 0.279,0.015 0,0.015C-0.279,0.015 -0.546,0.064 -0.799,0.163C-1.053,0.261 -1.275,0.411 -1.466,0.613C-1.658,0.814 -1.813,1.063 -1.932,1.358C-2.051,1.652 -2.111,1.996 -2.111,2.39C-2.111,2.783 -2.051,3.129 -1.932,3.429C-1.813,3.73 -1.658,3.98 -1.466,4.182C-1.275,4.384 -1.053,4.536 -0.799,4.64C-0.546,4.743 -0.279,4.795 0,4.795M0,-1.614C0.569,-1.614 1.091,-1.514 1.567,-1.312C2.043,-1.11 2.457,-0.831 2.809,-0.474C3.161,-0.117 3.435,0.305 3.632,0.791C3.828,1.278 3.926,1.81 3.926,2.39C3.926,2.969 3.828,3.504 3.632,3.996C3.435,4.487 3.161,4.911 2.809,5.268C2.457,5.625 2.043,5.905 1.567,6.106C1.091,6.308 0.569,6.409 0,6.409C-0.559,6.409 -1.078,6.308 -1.56,6.106C-2.041,5.905 -2.455,5.625 -2.801,5.268C-3.148,4.911 -3.419,4.487 -3.616,3.996C-3.813,3.504 -3.911,2.969 -3.911,2.39C-3.911,1.81 -3.813,1.278 -3.616,0.791C-3.419,0.305 -3.148,-0.117 -2.801,-0.474C-2.455,-0.831 -2.041,-1.11 -1.56,-1.312C-1.078,-1.514 -0.559,-1.614 0,-1.614" style="fill:rgb(18,44,68);fill-rule:nonzero;"/>
            </g>
            <g transform="matrix(4.16667,0,0,4.16667,621.628,76.2542)">
                <path d="M0,-8.085C-0.124,-8.085 -0.251,-8.069 -0.38,-8.038C-0.51,-8.007 -0.629,-7.948 -0.737,-7.86C-0.846,-7.772 -0.936,-7.653 -1.009,-7.503C-1.081,-7.353 -1.117,-7.164 -1.117,-6.937L-1.117,-5.943L0.636,-5.943L0.636,-4.376L-1.117,-4.376L-1.117,1.614L-2.933,1.614L-2.933,-4.376L-4.252,-4.376L-4.252,-5.943L-2.933,-5.943L-2.933,-6.983C-2.933,-7.407 -2.869,-7.787 -2.739,-8.124C-2.61,-8.46 -2.429,-8.745 -2.196,-8.977C-1.963,-9.21 -1.687,-9.389 -1.366,-9.513C-1.045,-9.637 -0.688,-9.699 -0.295,-9.699C-0.067,-9.699 0.132,-9.681 0.303,-9.645C0.473,-9.608 0.59,-9.575 0.652,-9.544L0.652,-8.007C0.6,-8.028 0.522,-8.046 0.419,-8.062C0.315,-8.077 0.176,-8.085 0,-8.085" style="fill:rgb(18,44,68);fill-rule:nonzero;"/>
            </g>
            <g transform="matrix(4.16667,0,0,4.16667,664.303,75.6708)">
                <path d="M0,-7.495L0,1.754L-1.862,1.754L-1.862,-7.495L-5.432,-7.495L-5.432,-9.249L3.585,-9.249L3.585,-7.495" style="fill:rgb(18,44,68);fill-rule:nonzero;"/>
            </g>
            <g transform="matrix(4.16667,0,0,4.16667,703.099,75.1583)">
                <path d="M0,-3.895C-0.207,-3.926 -0.403,-3.942 -0.59,-3.942C-1.293,-3.942 -1.808,-3.75 -2.134,-3.367C-2.46,-2.984 -2.623,-2.436 -2.623,-1.722L-2.623,1.878L-4.423,1.878L-4.423,-5.68L-2.669,-5.68L-2.669,-4.469C-2.493,-4.883 -2.209,-5.204 -1.816,-5.431C-1.423,-5.659 -0.978,-5.773 -0.481,-5.773C-0.367,-5.773 -0.269,-5.767 -0.186,-5.757C-0.103,-5.747 -0.041,-5.736 0,-5.726" style="fill:rgb(18,44,68);fill-rule:nonzero;"/>
            </g>
            <g transform="matrix(4.16667,0,0,4.16667,718.878,56.4042)">
                <path d="M0,5.199C0.248,5.199 0.486,5.165 0.714,5.098C0.941,5.031 1.141,4.922 1.311,4.772C1.482,4.622 1.619,4.423 1.723,4.175C1.826,3.926 1.878,3.616 1.878,3.244L1.878,2.902L-0.093,3.197C-0.372,3.249 -0.611,3.355 -0.807,3.515C-1.004,3.676 -1.102,3.911 -1.102,4.221C-1.102,4.48 -1.009,4.708 -0.823,4.904C-0.636,5.101 -0.362,5.199 0,5.199M-2.902,4.33C-2.902,3.988 -2.843,3.689 -2.724,3.43C-2.605,3.171 -2.444,2.946 -2.242,2.755C-2.041,2.563 -1.8,2.411 -1.521,2.297C-1.242,2.183 -0.942,2.1 -0.621,2.048L1.319,1.754C1.536,1.723 1.684,1.658 1.761,1.56C1.839,1.461 1.878,1.345 1.878,1.211C1.878,0.89 1.764,0.618 1.536,0.396C1.309,0.173 0.947,0.062 0.45,0.062C-0.026,0.062 -0.393,0.194 -0.652,0.458C-0.911,0.722 -1.061,1.045 -1.102,1.428L-2.747,1.055C-2.716,0.735 -2.618,0.424 -2.452,0.124C-2.287,-0.176 -2.069,-0.44 -1.8,-0.667C-1.531,-0.895 -1.208,-1.076 -0.83,-1.21C-0.453,-1.345 -0.031,-1.412 0.435,-1.412C1.014,-1.412 1.508,-1.335 1.917,-1.179C2.325,-1.024 2.656,-0.817 2.91,-0.559C3.163,-0.3 3.349,0 3.469,0.341C3.587,0.683 3.647,1.04 3.647,1.412L3.647,5.168C3.647,5.509 3.66,5.786 3.686,5.998C3.711,6.21 3.73,6.337 3.74,6.378L2.064,6.378C2.054,6.358 2.038,6.267 2.017,6.107C1.997,5.946 1.986,5.716 1.986,5.416C1.81,5.706 1.531,5.978 1.148,6.231C0.766,6.484 0.269,6.611 -0.341,6.611C-0.735,6.611 -1.089,6.549 -1.404,6.425C-1.72,6.301 -1.989,6.133 -2.212,5.921C-2.434,5.709 -2.605,5.465 -2.724,5.191C-2.843,4.917 -2.902,4.63 -2.902,4.33" style="fill:rgb(18,44,68);fill-rule:nonzero;"/>
            </g>
            <g transform="matrix(4.16667,0,0,4.16667,750.303,50.5875)">
                <path d="M0,7.775L-1.8,7.775L-1.8,0.217L-0.047,0.217L-0.047,1.226C0.202,0.791 0.53,0.479 0.939,0.287C1.347,0.096 1.764,0 2.188,0C2.654,0 3.057,0.078 3.399,0.233C3.74,0.388 4.022,0.603 4.244,0.877C4.467,1.151 4.635,1.469 4.749,1.831C4.863,2.193 4.919,2.581 4.919,2.995L4.919,7.775L3.119,7.775L3.119,3.306C3.119,2.84 3.003,2.444 2.77,2.118C2.537,1.792 2.136,1.629 1.567,1.629C1.05,1.629 0.66,1.803 0.396,2.149C0.132,2.496 0,2.918 0,3.414" style="fill:rgb(18,44,68);fill-rule:nonzero;"/>
            </g>
            <g transform="matrix(4.16667,0,0,4.16667,783.799,61.8417)">
                <path d="M0,2.591C0.031,2.932 0.173,3.233 0.427,3.491C0.68,3.75 1.05,3.879 1.536,3.879C1.909,3.879 2.191,3.794 2.382,3.623C2.574,3.452 2.669,3.248 2.669,3.01C2.669,2.803 2.597,2.627 2.452,2.482C2.307,2.338 2.085,2.234 1.785,2.172L0.667,1.924C-0.005,1.779 -0.512,1.507 -0.854,1.109C-1.195,0.711 -1.366,0.248 -1.366,-0.28C-1.366,-0.611 -1.293,-0.924 -1.148,-1.219C-1.004,-1.514 -0.807,-1.772 -0.559,-1.995C-0.31,-2.217 -0.018,-2.393 0.318,-2.522C0.654,-2.652 1.019,-2.716 1.412,-2.716C1.94,-2.716 2.382,-2.641 2.739,-2.491C3.096,-2.341 3.388,-2.158 3.616,-1.94C3.843,-1.723 4.012,-1.493 4.12,-1.25C4.229,-1.007 4.299,-0.792 4.33,-0.606L2.809,-0.171C2.788,-0.275 2.752,-0.394 2.7,-0.528C2.648,-0.663 2.568,-0.787 2.46,-0.901C2.351,-1.015 2.211,-1.11 2.041,-1.188C1.87,-1.265 1.661,-1.304 1.412,-1.304C1.091,-1.304 0.83,-1.219 0.628,-1.048C0.427,-0.877 0.326,-0.673 0.326,-0.435C0.326,-0.228 0.393,-0.057 0.528,0.077C0.662,0.212 0.848,0.305 1.086,0.356L2.235,0.589C2.949,0.744 3.489,1.026 3.856,1.435C4.224,1.844 4.407,2.327 4.407,2.886C4.407,3.176 4.348,3.463 4.229,3.747C4.11,4.032 3.934,4.29 3.701,4.523C3.469,4.756 3.171,4.945 2.809,5.09C2.447,5.234 2.028,5.307 1.552,5.307C1.003,5.307 0.538,5.229 0.155,5.074C-0.228,4.919 -0.543,4.725 -0.792,4.492C-1.04,4.259 -1.226,4.011 -1.35,3.747C-1.474,3.483 -1.547,3.243 -1.567,3.026" style="fill:rgb(18,44,68);fill-rule:nonzero;"/>
            </g>
            <g transform="matrix(4.16667,0,0,4.16667,833.524,78.8417)">
                <path d="M0,-2.793C0,-3.507 -0.186,-4.076 -0.559,-4.5C-0.931,-4.924 -1.423,-5.136 -2.033,-5.136C-2.333,-5.136 -2.607,-5.079 -2.856,-4.966C-3.104,-4.852 -3.316,-4.694 -3.492,-4.492C-3.668,-4.291 -3.807,-4.045 -3.911,-3.755C-4.014,-3.465 -4.066,-3.145 -4.066,-2.793C-4.066,-2.069 -3.875,-1.492 -3.492,-1.063C-3.109,-0.633 -2.623,-0.419 -2.033,-0.419C-1.433,-0.419 -0.944,-0.633 -0.566,-1.063C-0.189,-1.492 0,-2.069 0,-2.793M-5.835,3.942L-5.835,-6.564L-4.097,-6.564L-4.097,-5.54C-3.911,-5.871 -3.611,-6.153 -3.197,-6.386C-2.783,-6.618 -2.281,-6.735 -1.692,-6.735C-1.133,-6.735 -0.636,-6.634 -0.202,-6.432C0.233,-6.23 0.597,-5.954 0.892,-5.602C1.187,-5.25 1.412,-4.834 1.567,-4.353C1.723,-3.872 1.8,-3.352 1.8,-2.793C1.8,-2.224 1.717,-1.699 1.552,-1.218C1.386,-0.737 1.148,-0.318 0.838,0.039C0.528,0.396 0.153,0.676 -0.287,0.877C-0.727,1.079 -1.216,1.18 -1.754,1.18C-2.302,1.18 -2.773,1.079 -3.166,0.877C-3.559,0.676 -3.854,0.43 -4.05,0.14L-4.05,3.942" style="fill:rgb(18,44,68);fill-rule:nonzero;"/>
            </g>
            <g transform="matrix(4.16667,0,0,4.16667,862.366,57.25)">
                <path d="M0,4.795C0.279,4.795 0.546,4.743 0.799,4.64C1.053,4.536 1.278,4.384 1.474,4.182C1.671,3.98 1.826,3.73 1.94,3.429C2.054,3.129 2.111,2.783 2.111,2.39C2.111,1.996 2.054,1.652 1.94,1.358C1.826,1.063 1.671,0.814 1.474,0.613C1.278,0.411 1.053,0.261 0.799,0.163C0.546,0.064 0.279,0.015 0,0.015C-0.279,0.015 -0.546,0.064 -0.799,0.163C-1.053,0.261 -1.275,0.411 -1.466,0.613C-1.658,0.814 -1.813,1.063 -1.932,1.358C-2.051,1.652 -2.111,1.996 -2.111,2.39C-2.111,2.783 -2.051,3.129 -1.932,3.429C-1.813,3.73 -1.658,3.98 -1.466,4.182C-1.275,4.384 -1.053,4.536 -0.799,4.64C-0.546,4.743 -0.279,4.795 0,4.795M0,-1.614C0.569,-1.614 1.091,-1.514 1.567,-1.312C2.043,-1.11 2.457,-0.831 2.809,-0.474C3.161,-0.117 3.435,0.305 3.632,0.791C3.828,1.278 3.926,1.81 3.926,2.39C3.926,2.969 3.828,3.504 3.632,3.996C3.435,4.487 3.161,4.911 2.809,5.268C2.457,5.625 2.043,5.905 1.567,6.106C1.091,6.308 0.569,6.409 0,6.409C-0.559,6.409 -1.078,6.308 -1.56,6.106C-2.041,5.905 -2.455,5.625 -2.801,5.268C-3.148,4.911 -3.419,4.487 -3.616,3.996C-3.813,3.504 -3.911,2.969 -3.911,2.39C-3.911,1.81 -3.813,1.278 -3.616,0.791C-3.419,0.305 -3.148,-0.117 -2.801,-0.474C-2.455,-0.831 -2.041,-1.11 -1.56,-1.312C-1.078,-1.514 -0.559,-1.614 0,-1.614" style="fill:rgb(18,44,68);fill-rule:nonzero;"/>
            </g>
            <g transform="matrix(4.16667,0,0,4.16667,904.132,75.1583)">
                <path d="M0,-3.895C-0.207,-3.926 -0.403,-3.942 -0.59,-3.942C-1.293,-3.942 -1.808,-3.75 -2.134,-3.367C-2.46,-2.984 -2.623,-2.436 -2.623,-1.722L-2.623,1.878L-4.423,1.878L-4.423,-5.68L-2.669,-5.68L-2.669,-4.469C-2.493,-4.883 -2.209,-5.204 -1.816,-5.431C-1.423,-5.659 -0.978,-5.773 -0.481,-5.773C-0.367,-5.773 -0.269,-5.767 -0.186,-5.757C-0.103,-5.747 -0.041,-5.736 0,-5.726" style="fill:rgb(18,44,68);fill-rule:nonzero;"/>
            </g>
            <g transform="matrix(4.16667,0,0,4.16667,919.653,73.7375)">
                <path d="M0,-5.339L1.567,-5.339L1.567,-3.74L0,-3.74L0,-0.233C0,0.098 0.078,0.339 0.233,0.489C0.388,0.639 0.631,0.714 0.962,0.714C1.086,0.714 1.211,0.706 1.335,0.69C1.459,0.675 1.541,0.662 1.583,0.651L1.583,2.141C1.531,2.162 1.417,2.196 1.241,2.242C1.065,2.289 0.812,2.312 0.481,2.312C-0.223,2.312 -0.776,2.116 -1.18,1.722C-1.583,1.329 -1.785,0.776 -1.785,0.062L-1.785,-3.74L-3.181,-3.74L-3.181,-5.339L-2.793,-5.339C-2.39,-5.339 -2.095,-5.453 -1.909,-5.68C-1.723,-5.908 -1.629,-6.187 -1.629,-6.518L-1.629,-7.651L0,-7.651" style="fill:rgb(18,44,68);fill-rule:nonzero;"/>
            </g>
            <g transform="matrix(4.16667,0,0,4.16667,943.191,56.4042)">
                <path d="M0,5.199C0.248,5.199 0.486,5.165 0.714,5.098C0.941,5.031 1.141,4.922 1.311,4.772C1.482,4.622 1.619,4.423 1.723,4.175C1.826,3.926 1.878,3.616 1.878,3.244L1.878,2.902L-0.093,3.197C-0.372,3.249 -0.611,3.355 -0.807,3.515C-1.004,3.676 -1.102,3.911 -1.102,4.221C-1.102,4.48 -1.009,4.708 -0.823,4.904C-0.636,5.101 -0.362,5.199 0,5.199M-2.902,4.33C-2.902,3.988 -2.843,3.689 -2.724,3.43C-2.605,3.171 -2.444,2.946 -2.242,2.755C-2.041,2.563 -1.8,2.411 -1.521,2.297C-1.242,2.183 -0.942,2.1 -0.621,2.048L1.319,1.754C1.536,1.723 1.684,1.658 1.761,1.56C1.839,1.461 1.878,1.345 1.878,1.211C1.878,0.89 1.764,0.618 1.536,0.396C1.309,0.173 0.947,0.062 0.45,0.062C-0.026,0.062 -0.393,0.194 -0.652,0.458C-0.911,0.722 -1.061,1.045 -1.102,1.428L-2.747,1.055C-2.716,0.735 -2.618,0.424 -2.452,0.124C-2.287,-0.176 -2.069,-0.44 -1.8,-0.667C-1.531,-0.895 -1.208,-1.076 -0.83,-1.21C-0.453,-1.345 -0.031,-1.412 0.435,-1.412C1.014,-1.412 1.508,-1.335 1.917,-1.179C2.325,-1.024 2.656,-0.817 2.91,-0.559C3.163,-0.3 3.349,0 3.469,0.341C3.587,0.683 3.647,1.04 3.647,1.412L3.647,5.168C3.647,5.509 3.66,5.786 3.686,5.998C3.711,6.21 3.73,6.337 3.74,6.378L2.064,6.378C2.054,6.358 2.038,6.267 2.017,6.107C1.997,5.946 1.986,5.716 1.986,5.416C1.81,5.706 1.531,5.978 1.148,6.231C0.766,6.484 0.269,6.611 -0.341,6.611C-0.735,6.611 -1.089,6.549 -1.404,6.425C-1.72,6.301 -1.989,6.133 -2.212,5.921C-2.434,5.709 -2.605,5.465 -2.724,5.191C-2.843,4.917 -2.902,4.63 -2.902,4.33" style="fill:rgb(18,44,68);fill-rule:nonzero;"/>
            </g>
            <g transform="matrix(4.16667,0,0,4.16667,977.007,73.7375)">
                <path d="M0,-5.339L1.567,-5.339L1.567,-3.74L0,-3.74L0,-0.233C0,0.098 0.078,0.339 0.233,0.489C0.388,0.639 0.631,0.714 0.962,0.714C1.086,0.714 1.211,0.706 1.335,0.69C1.459,0.675 1.541,0.662 1.583,0.651L1.583,2.141C1.531,2.162 1.417,2.196 1.241,2.242C1.065,2.289 0.812,2.312 0.481,2.312C-0.223,2.312 -0.776,2.116 -1.18,1.722C-1.583,1.329 -1.785,0.776 -1.785,0.062L-1.785,-3.74L-3.181,-3.74L-3.181,-5.339L-2.793,-5.339C-2.39,-5.339 -2.095,-5.453 -1.909,-5.68C-1.723,-5.908 -1.629,-6.187 -1.629,-6.518L-1.629,-7.651L0,-7.651" style="fill:rgb(18,44,68);fill-rule:nonzero;"/>
            </g>
            <g transform="matrix(4.16667,0,0,4.16667,-100.543,-66.05)">
                <path d="M261.825,28.21L263.61,28.21L263.61,35.768L261.825,35.768L261.825,28.21ZM261.546,25.556C261.546,25.226 261.659,24.946 261.887,24.718C262.114,24.49 262.389,24.377 262.709,24.377C263.04,24.377 263.32,24.49 263.547,24.718C263.775,24.946 263.889,25.226 263.889,25.556C263.889,25.887 263.775,26.165 263.547,26.387C263.32,26.609 263.04,26.721 262.709,26.721C262.389,26.721 262.114,26.609 261.887,26.387C261.659,26.165 261.546,25.887 261.546,25.556" style="fill:rgb(18,44,68);fill-rule:nonzero;"/>
            </g>
            <g transform="matrix(4.16667,0,0,4.16667,1021.11,57.25)">
                <path d="M0,4.795C0.279,4.795 0.546,4.743 0.799,4.64C1.053,4.536 1.278,4.384 1.474,4.182C1.671,3.98 1.826,3.73 1.94,3.429C2.054,3.129 2.111,2.783 2.111,2.39C2.111,1.996 2.054,1.652 1.94,1.358C1.826,1.063 1.671,0.814 1.474,0.613C1.278,0.411 1.053,0.261 0.799,0.163C0.546,0.064 0.279,0.015 0,0.015C-0.279,0.015 -0.546,0.064 -0.799,0.163C-1.053,0.261 -1.275,0.411 -1.466,0.613C-1.658,0.814 -1.813,1.063 -1.932,1.358C-2.051,1.652 -2.111,1.996 -2.111,2.39C-2.111,2.783 -2.051,3.129 -1.932,3.429C-1.813,3.73 -1.658,3.98 -1.466,4.182C-1.275,4.384 -1.053,4.536 -0.799,4.64C-0.546,4.743 -0.279,4.795 0,4.795M0,-1.614C0.569,-1.614 1.091,-1.514 1.567,-1.312C2.043,-1.11 2.457,-0.831 2.809,-0.474C3.161,-0.117 3.435,0.305 3.632,0.791C3.828,1.278 3.926,1.81 3.926,2.39C3.926,2.969 3.828,3.504 3.632,3.996C3.435,4.487 3.161,4.911 2.809,5.268C2.457,5.625 2.043,5.905 1.567,6.106C1.091,6.308 0.569,6.409 0,6.409C-0.559,6.409 -1.078,6.308 -1.56,6.106C-2.041,5.905 -2.455,5.625 -2.801,5.268C-3.148,4.911 -3.419,4.487 -3.616,3.996C-3.813,3.504 -3.911,2.969 -3.911,2.39C-3.911,1.81 -3.813,1.278 -3.616,0.791C-3.419,0.305 -3.148,-0.117 -2.801,-0.474C-2.455,-0.831 -2.041,-1.11 -1.56,-1.312C-1.078,-1.514 -0.559,-1.614 0,-1.614" style="fill:rgb(18,44,68);fill-rule:nonzero;"/>
            </g>
            <g transform="matrix(4.16667,0,0,4.16667,1051.95,50.5875)">
                <path d="M0,7.775L-1.8,7.775L-1.8,0.217L-0.047,0.217L-0.047,1.226C0.202,0.791 0.53,0.479 0.939,0.287C1.347,0.096 1.764,0 2.188,0C2.654,0 3.057,0.078 3.399,0.233C3.74,0.388 4.022,0.603 4.244,0.877C4.467,1.151 4.635,1.469 4.749,1.831C4.863,2.193 4.919,2.581 4.919,2.995L4.919,7.775L3.119,7.775L3.119,3.306C3.119,2.84 3.003,2.444 2.77,2.118C2.537,1.792 2.136,1.629 1.567,1.629C1.05,1.629 0.66,1.803 0.396,2.149C0.132,2.496 0,2.918 0,3.414" style="fill:rgb(18,44,68);fill-rule:nonzero;"/>
            </g>
            <g transform="matrix(4.16667,0,0,4.16667,210.97,4.29167)">
                <path d="M0,-0.612C0.408,-0.612 0.729,-0.716 0.962,-0.924C1.194,-1.131 1.311,-1.418 1.311,-1.783C1.311,-2.148 1.194,-2.438 0.962,-2.653C0.729,-2.868 0.408,-2.976 0,-2.976L-1.343,-2.976L-1.343,-0.612L0,-0.612ZM-1.343,0.527L-1.343,3.503L-2.632,3.503L-2.632,-4.115L0.193,-4.115C0.559,-4.115 0.89,-4.055 1.187,-3.937C1.484,-3.819 1.741,-3.658 1.955,-3.454C2.17,-3.25 2.335,-3.004 2.45,-2.718C2.564,-2.431 2.622,-2.123 2.622,-1.794C2.622,-1.457 2.564,-1.147 2.45,-0.865C2.335,-0.581 2.17,-0.336 1.955,-0.129C1.741,0.079 1.484,0.24 1.187,0.355C0.89,0.47 0.559,0.527 0.193,0.527" style="fill:rgb(18,44,68);fill-rule:nonzero;"/>
            </g>
            <g transform="matrix(4.16667,0,0,4.16667,240.741,10.3833)">
                <path d="M0,-1.15C-0.007,-1.3 -0.038,-1.445 -0.091,-1.585C-0.145,-1.725 -0.226,-1.848 -0.333,-1.956C-0.441,-2.063 -0.573,-2.149 -0.731,-2.214C-0.888,-2.278 -1.074,-2.31 -1.289,-2.31C-1.483,-2.31 -1.656,-2.276 -1.81,-2.208C-1.964,-2.14 -2.095,-2.051 -2.203,-1.94C-2.31,-1.828 -2.396,-1.703 -2.46,-1.564C-2.525,-1.424 -2.561,-1.286 -2.568,-1.15L0,-1.15ZM1.193,0.548C1.121,0.777 1.017,0.992 0.881,1.192C0.745,1.393 0.576,1.568 0.376,1.719C0.175,1.869 -0.054,1.987 -0.312,2.073C-0.569,2.159 -0.856,2.202 -1.171,2.202C-1.529,2.202 -1.87,2.139 -2.192,2.014C-2.514,1.889 -2.797,1.706 -3.041,1.466C-3.284,1.226 -3.479,0.933 -3.626,0.585C-3.773,0.238 -3.846,-0.158 -3.846,-0.602C-3.846,-1.017 -3.777,-1.393 -3.637,-1.73C-3.497,-2.067 -3.309,-2.355 -3.073,-2.595C-2.836,-2.835 -2.564,-3.021 -2.256,-3.154C-1.948,-3.286 -1.63,-3.352 -1.3,-3.352C-0.899,-3.352 -0.539,-3.288 -0.22,-3.159C0.098,-3.03 0.367,-2.847 0.585,-2.611C0.804,-2.375 0.97,-2.09 1.085,-1.757C1.2,-1.424 1.257,-1.05 1.257,-0.634C1.257,-0.534 1.253,-0.446 1.246,-0.371C1.239,-0.296 1.232,-0.251 1.225,-0.237L-2.6,-0.237C-2.593,-0.036 -2.55,0.146 -2.471,0.311C-2.392,0.476 -2.288,0.619 -2.16,0.741C-2.031,0.863 -1.882,0.958 -1.714,1.026C-1.546,1.094 -1.365,1.128 -1.171,1.128C-0.792,1.128 -0.5,1.04 -0.295,0.865C-0.091,0.689 0.054,0.472 0.14,0.215" style="fill:rgb(18,44,68);fill-rule:nonzero;"/>
            </g>
            <g transform="matrix(4.16667,0,0,4.16667,256.007,-3.54167)">
                <path d="M0,5.383L-1.246,5.383L-1.246,0.151L-0.032,0.151L-0.032,0.849C0.14,0.548 0.367,0.332 0.65,0.199C0.933,0.067 1.221,0 1.515,0C1.837,0 2.117,0.054 2.353,0.161C2.589,0.269 2.784,0.418 2.938,0.607C3.092,0.797 3.209,1.017 3.288,1.268C3.366,1.519 3.406,1.787 3.406,2.074L3.406,5.383L2.16,5.383L2.16,2.289C2.16,1.966 2.079,1.692 1.918,1.467C1.757,1.241 1.479,1.128 1.085,1.128C0.727,1.128 0.457,1.248 0.274,1.488C0.091,1.728 0,2.02 0,2.364" style="fill:rgb(18,44,68);fill-rule:nonzero;"/>
            </g>
            <g transform="matrix(4.16667,0,0,4.16667,281.386,-3.54167)">
                <path d="M0,5.383L-1.246,5.383L-1.246,0.151L-0.032,0.151L-0.032,0.849C0.14,0.548 0.367,0.332 0.65,0.199C0.933,0.067 1.221,0 1.515,0C1.837,0 2.117,0.054 2.353,0.161C2.589,0.269 2.784,0.418 2.938,0.607C3.092,0.797 3.209,1.017 3.288,1.268C3.366,1.519 3.406,1.787 3.406,2.074L3.406,5.383L2.16,5.383L2.16,2.289C2.16,1.966 2.079,1.692 1.918,1.467C1.757,1.241 1.479,1.128 1.085,1.128C0.727,1.128 0.457,1.248 0.274,1.488C0.091,1.728 0,2.02 0,2.364" style="fill:rgb(18,44,68);fill-rule:nonzero;"/>
            </g>
            <g transform="matrix(4.16667,0,0,4.16667,304.578,4.25)">
                <path d="M0,1.794C0.022,2.03 0.12,2.238 0.295,2.417C0.471,2.596 0.727,2.686 1.064,2.686C1.321,2.686 1.517,2.627 1.649,2.508C1.782,2.39 1.848,2.249 1.848,2.084C1.848,1.941 1.798,1.819 1.698,1.719C1.597,1.618 1.443,1.547 1.236,1.504L0.462,1.332C-0.004,1.232 -0.355,1.044 -0.591,0.768C-0.827,0.492 -0.945,0.172 -0.945,-0.194C-0.945,-0.423 -0.895,-0.64 -0.795,-0.844C-0.695,-1.048 -0.559,-1.227 -0.387,-1.381C-0.215,-1.535 -0.013,-1.657 0.22,-1.746C0.453,-1.836 0.705,-1.88 0.978,-1.88C1.343,-1.88 1.649,-1.828 1.896,-1.725C2.143,-1.621 2.346,-1.494 2.503,-1.343C2.661,-1.193 2.777,-1.033 2.853,-0.865C2.928,-0.697 2.976,-0.548 2.998,-0.419L1.945,-0.118C1.93,-0.19 1.905,-0.272 1.869,-0.366C1.834,-0.459 1.778,-0.545 1.703,-0.623C1.628,-0.702 1.531,-0.768 1.413,-0.822C1.295,-0.876 1.15,-0.903 0.978,-0.903C0.756,-0.903 0.575,-0.844 0.435,-0.726C0.295,-0.607 0.226,-0.466 0.226,-0.301C0.226,-0.158 0.272,-0.04 0.365,0.053C0.458,0.147 0.587,0.211 0.752,0.247L1.547,0.408C2.041,0.515 2.416,0.711 2.67,0.994C2.924,1.277 3.051,1.611 3.051,1.998C3.051,2.199 3.01,2.397 2.928,2.594C2.845,2.791 2.724,2.97 2.562,3.132C2.401,3.293 2.195,3.424 1.945,3.524C1.694,3.624 1.404,3.674 1.074,3.674C0.695,3.674 0.372,3.62 0.107,3.513C-0.158,3.406 -0.376,3.271 -0.548,3.11C-0.72,2.949 -0.849,2.777 -0.935,2.594C-1.021,2.412 -1.071,2.245 -1.085,2.095" style="fill:rgb(18,44,68);fill-rule:nonzero;"/>
            </g>
            <g transform="matrix(4.16667,0,0,4.16667,323.691,-2.9125)">
                <path d="M0,7.349L1.257,4.609L-0.978,0L0.43,0L1.934,3.309L3.341,0L4.663,0L1.332,7.349" style="fill:rgb(18,44,68);fill-rule:nonzero;"/>
            </g>
            <g transform="matrix(4.16667,0,0,4.16667,-100.543,-179.183)">
                <rect x="107.317" y="39.759" width="1.246" height="7.779" style="fill:rgb(18,44,68);"/>
            </g>
            <g transform="matrix(4.16667,0,0,4.16667,369.578,-2.9125)">
                <path d="M0,5.232L-1.246,5.232L-3.374,0L-1.998,0L-0.612,3.739L0.741,0L2.052,0" style="fill:rgb(18,44,68);fill-rule:nonzero;"/>
            </g>
            <g transform="matrix(4.16667,0,0,4.16667,389.049,0.4875)">
                <path d="M0,3.599C0.172,3.599 0.337,3.576 0.494,3.529C0.652,3.483 0.79,3.407 0.908,3.304C1.026,3.2 1.121,3.062 1.193,2.89C1.264,2.718 1.3,2.503 1.3,2.245L1.3,2.009L-0.064,2.213C-0.258,2.249 -0.423,2.322 -0.559,2.433C-0.695,2.544 -0.763,2.707 -0.763,2.922C-0.763,3.101 -0.698,3.259 -0.569,3.395C-0.441,3.531 -0.251,3.599 0,3.599M-2.009,2.997C-2.009,2.761 -1.968,2.553 -1.886,2.374C-1.803,2.195 -1.692,2.039 -1.553,1.907C-1.413,1.774 -1.246,1.669 -1.053,1.59C-0.859,1.511 -0.652,1.454 -0.43,1.418L0.913,1.214C1.064,1.192 1.166,1.148 1.219,1.08C1.273,1.012 1.3,0.931 1.3,0.838C1.3,0.616 1.221,0.428 1.064,0.274C0.906,0.12 0.655,0.043 0.311,0.043C-0.018,0.043 -0.272,0.134 -0.451,0.317C-0.63,0.499 -0.734,0.723 -0.763,0.988L-1.902,0.73C-1.88,0.508 -1.812,0.294 -1.698,0.086C-1.583,-0.122 -1.433,-0.305 -1.246,-0.462C-1.06,-0.62 -0.836,-0.745 -0.575,-0.838C-0.313,-0.931 -0.021,-0.978 0.301,-0.978C0.702,-0.978 1.044,-0.924 1.327,-0.817C1.61,-0.709 1.839,-0.566 2.015,-0.387C2.19,-0.208 2.319,0 2.401,0.236C2.483,0.473 2.525,0.72 2.525,0.977L2.525,3.577C2.525,3.814 2.534,4.006 2.552,4.152C2.57,4.299 2.582,4.387 2.589,4.416L1.429,4.416C1.422,4.401 1.411,4.339 1.397,4.228C1.382,4.117 1.375,3.957 1.375,3.749C1.253,3.95 1.06,4.138 0.795,4.313C0.53,4.489 0.186,4.577 -0.236,4.577C-0.509,4.577 -0.754,4.534 -0.972,4.448C-1.191,4.362 -1.377,4.246 -1.531,4.099C-1.685,3.952 -1.803,3.783 -1.886,3.594C-1.968,3.404 -2.009,3.205 -2.009,2.997" style="fill:rgb(18,44,68);fill-rule:nonzero;"/>
            </g>
            <g transform="matrix(4.16667,0,0,4.16667,410.807,-3.54167)">
                <path d="M0,5.383L-1.246,5.383L-1.246,0.151L-0.032,0.151L-0.032,0.849C0.14,0.548 0.367,0.332 0.65,0.199C0.933,0.067 1.221,0 1.515,0C1.837,0 2.117,0.054 2.353,0.161C2.589,0.269 2.784,0.418 2.938,0.607C3.092,0.797 3.209,1.017 3.288,1.268C3.366,1.519 3.406,1.787 3.406,2.074L3.406,5.383L2.16,5.383L2.16,2.289C2.16,1.966 2.079,1.692 1.918,1.467C1.757,1.241 1.479,1.128 1.085,1.128C0.727,1.128 0.457,1.248 0.274,1.488C0.091,1.728 0,2.02 0,2.364" style="fill:rgb(18,44,68);fill-rule:nonzero;"/>
            </g>
            <g transform="matrix(4.16667,0,0,4.16667,-100.543,-179.642)">
                <path d="M127.569,42.415L128.804,42.415L128.804,47.647L127.569,47.647L127.569,42.415ZM127.376,40.578C127.376,40.348 127.454,40.155 127.612,39.997C127.769,39.839 127.959,39.76 128.181,39.76C128.411,39.76 128.604,39.839 128.762,39.997C128.919,40.155 128.998,40.348 128.998,40.578C128.998,40.806 128.919,40.998 128.762,41.153C128.604,41.307 128.411,41.383 128.181,41.383C127.959,41.383 127.769,41.307 127.612,41.153C127.454,40.998 127.376,40.806 127.376,40.578" style="fill:rgb(18,44,68);fill-rule:nonzero;"/>
            </g>
            <g transform="matrix(4.16667,0,0,4.16667,449.395,0.4875)">
                <path d="M0,3.599C0.172,3.599 0.337,3.576 0.494,3.529C0.652,3.483 0.79,3.407 0.908,3.304C1.026,3.2 1.121,3.062 1.193,2.89C1.264,2.718 1.3,2.503 1.3,2.245L1.3,2.009L-0.064,2.213C-0.258,2.249 -0.423,2.322 -0.559,2.433C-0.695,2.544 -0.763,2.707 -0.763,2.922C-0.763,3.101 -0.698,3.259 -0.569,3.395C-0.441,3.531 -0.251,3.599 0,3.599M-2.009,2.997C-2.009,2.761 -1.968,2.553 -1.886,2.374C-1.803,2.195 -1.692,2.039 -1.553,1.907C-1.413,1.774 -1.246,1.669 -1.053,1.59C-0.859,1.511 -0.652,1.454 -0.43,1.418L0.913,1.214C1.064,1.192 1.166,1.148 1.219,1.08C1.273,1.012 1.3,0.931 1.3,0.838C1.3,0.616 1.221,0.428 1.064,0.274C0.906,0.12 0.655,0.043 0.311,0.043C-0.018,0.043 -0.272,0.134 -0.451,0.317C-0.63,0.499 -0.734,0.723 -0.763,0.988L-1.902,0.73C-1.88,0.508 -1.812,0.294 -1.698,0.086C-1.583,-0.122 -1.433,-0.305 -1.246,-0.462C-1.06,-0.62 -0.836,-0.745 -0.575,-0.838C-0.313,-0.931 -0.021,-0.978 0.301,-0.978C0.702,-0.978 1.044,-0.924 1.327,-0.817C1.61,-0.709 1.839,-0.566 2.015,-0.387C2.19,-0.208 2.319,0 2.401,0.236C2.483,0.473 2.525,0.72 2.525,0.977L2.525,3.577C2.525,3.814 2.534,4.006 2.552,4.152C2.57,4.299 2.582,4.387 2.589,4.416L1.429,4.416C1.422,4.401 1.411,4.339 1.397,4.228C1.382,4.117 1.375,3.957 1.375,3.749C1.253,3.95 1.06,4.138 0.795,4.313C0.53,4.489 0.186,4.577 -0.236,4.577C-0.509,4.577 -0.754,4.534 -0.972,4.448C-1.191,4.362 -1.377,4.246 -1.531,4.099C-1.685,3.952 -1.803,3.783 -1.886,3.594C-1.968,3.404 -2.009,3.205 -2.009,2.997" style="fill:rgb(18,44,68);fill-rule:nonzero;"/>
            </g>
            <g transform="matrix(0,4.16667,4.16667,0,236.982,34.45)">
                <path d="M-17.268,-17.268L17.268,-17.268" style="fill:none;fill-rule:nonzero;stroke:rgb(16,45,68);stroke-width:0.93px;"/>
            </g>
        </g>
    </g>
</svg>
